<svg width="57" height="40" viewBox="0 0 57 40" fill="none" xmlns="http://www.w3.org/2000/svg">
<path d="M55.776 15.0917C54.6299 14.3401 53.222 13.8918 51.7094 13.8918C51.5355 13.8918 51.3635 13.8974 51.1933 13.9086L51.2158 13.9067C50.3819 13.9086 49.5667 13.983 48.7739 14.1206L48.8599 14.1076C48.4205 11.5834 46.9435 9.46647 44.8924 8.17178L44.8569 8.15132L44.0548 7.68999L43.5275 8.44895C42.8993 9.40136 42.4075 10.51 42.114 11.695L42.099 11.7675C41.9326 12.3702 41.8373 13.0622 41.8373 13.7765C41.8373 15.3223 42.286 16.7621 43.0601 17.9768L43.0414 17.9452C41.8504 18.5014 40.4593 18.8529 38.9953 18.9199H38.971H2.08346C1.11869 18.9218 0.337152 19.6975 0.333413 20.6555C0.331543 20.7596 0.331543 20.8843 0.331543 21.0089C0.331543 24.2661 0.924242 27.3856 2.00868 30.267L1.94884 30.0847C2.99214 33.1224 4.96282 35.6188 7.52059 37.3041L7.57294 37.3357C10.8337 39.0155 14.6928 39.9995 18.7819 39.9995C19.1689 39.9995 19.5522 39.9902 19.9355 39.9735L19.8813 39.9753C19.9149 39.9753 19.9542 39.9753 19.9934 39.9753C22.3717 39.9753 24.6958 39.7502 26.9488 39.3205L26.7188 39.3577C30.0749 38.7327 33.0665 37.611 35.7776 36.0596L35.6392 36.1322C37.9894 34.7649 39.9975 33.1168 41.7064 31.199L41.7288 31.1729C44.2062 28.271 46.2218 24.8837 47.6091 21.1931L47.6857 20.9605H48.2018C48.3046 20.9643 48.4243 20.968 48.5439 20.968C50.8362 20.968 52.9191 20.0732 54.4578 18.6148L54.4541 18.6186C55.159 17.9526 55.718 17.1434 56.0864 16.2357L56.1032 16.191L56.3313 15.5232L55.776 15.0917ZM5.5013 17.8484H10.4486C10.686 17.8466 10.8786 17.655 10.8786 17.4187V13.038C10.8786 12.8018 10.686 12.6083 10.4486 12.6065H5.5013C5.26384 12.6083 5.07126 12.7999 5.07126 13.0362V17.4187C5.07126 17.655 5.26384 17.8484 5.5013 17.8484ZM12.3145 17.8484H17.258C17.4955 17.8484 17.69 17.6568 17.69 17.4187V13.038C17.69 12.8018 17.4974 12.6083 17.2599 12.6065H12.3127C12.0733 12.6065 11.8789 12.7999 11.8789 13.038V17.4187C11.8808 17.6568 12.0752 17.8484 12.3145 17.8484ZM19.2287 17.8484H24.176C24.4134 17.8466 24.606 17.655 24.606 17.4187V13.038C24.606 12.8018 24.4134 12.6083 24.176 12.6065H19.2287C18.9913 12.6083 18.7987 12.7999 18.7987 13.0362V17.4187C18.7987 17.655 18.9913 17.8484 19.2306 17.8484H19.2287ZM26.0644 17.8484H31.006C31.2454 17.8484 31.4379 17.6568 31.4398 17.4187V13.038C31.4398 12.7999 31.2454 12.6065 31.006 12.6065H26.0644C25.8269 12.6065 25.6325 12.7981 25.6325 13.0362V17.4187C25.6325 17.655 25.8251 17.8484 26.0625 17.8484C26.0625 17.8484 26.0625 17.8484 26.0644 17.8484ZM12.3145 11.5462H17.258C17.4974 11.5443 17.69 11.3527 17.69 11.1146V6.73386C17.69 6.49762 17.4974 6.30416 17.258 6.30416H12.3145C12.0752 6.30416 11.8826 6.49576 11.8808 6.73386V11.1146C11.8826 11.3527 12.0752 11.5443 12.3145 11.5462ZM19.2287 11.5462H24.176C24.4134 11.5443 24.606 11.3508 24.606 11.1146V6.73386C24.606 6.49762 24.4134 6.30416 24.1741 6.30416H19.2325C18.995 6.30416 18.8006 6.49576 18.8006 6.73386V11.1146C18.8024 11.3527 18.9931 11.5443 19.2325 11.5462H19.2287ZM26.0644 11.5462H31.006C31.2454 11.5443 31.4379 11.3527 31.4398 11.1146V6.73386C31.4379 6.49576 31.2454 6.30416 31.006 6.30416H26.0644C25.8269 6.30416 25.6325 6.49576 25.6325 6.73386V11.1146C25.6325 11.3527 25.8251 11.5443 26.0644 11.5462ZM26.0644 5.24385H31.006C31.2454 5.24385 31.4398 5.05039 31.4398 4.81229V0.429702C31.4379 0.191599 31.2454 0 31.006 0H26.0644C25.8269 0 25.6325 0.191599 25.6325 0.429702V4.81229C25.6325 5.04853 25.8251 5.24199 26.0625 5.24199C26.0625 5.24199 26.0625 5.24199 26.0644 5.24199V5.24385ZM32.958 17.8484H37.9015C38.1409 17.8484 38.3334 17.6568 38.3353 17.4187V13.038C38.3353 12.7999 38.1409 12.6065 37.9015 12.6065H32.958C32.7187 12.6065 32.5261 12.7981 32.5261 13.0362V17.4187C32.5261 17.655 32.7187 17.8484 32.958 17.8484Z" fill="#181818"/>
</svg>
