<svg width="45" height="40" viewBox="0 0 45 40" fill="none" xmlns="http://www.w3.org/2000/svg">
<path d="M19.8196 29.2981C20.6387 29.3356 21.4757 29.3625 22.3231 29.3625C23.1795 29.3625 24.0254 29.3445 24.855 29.2981C24.0254 30.3762 23.2063 31.33 22.3395 32.2389L22.3514 32.2269C21.4891 31.3285 20.661 30.3732 19.8806 29.379L19.8196 29.2981ZM11.3334 28.1003C12.9463 28.512 14.9137 28.8624 16.9213 29.078L17.1164 29.0945C18.3451 30.791 19.5872 32.2838 20.9202 33.6883L20.9038 33.6703C18.9513 35.8609 16.3167 37.4001 13.3365 37.9527L13.2546 37.9646C13.2486 37.9646 13.2427 37.9646 13.2367 37.9646C12.8674 37.9646 12.5189 37.8733 12.2136 37.7116L12.2255 37.7176C10.9864 37.0063 10.4487 34.2857 10.8672 30.7895C10.967 29.9285 11.1308 29.0226 11.3319 28.0988L11.3334 28.1003ZM33.3501 28.0808C33.5259 28.7905 33.6912 29.6949 33.8088 30.6143L33.8222 30.743C34.2497 34.2378 33.7225 36.9554 32.4938 37.6816C32.2197 37.8344 31.8921 37.9242 31.5436 37.9242C31.5093 37.9242 31.4751 37.9227 31.4408 37.9212H31.4453C28.3877 37.3597 25.7545 35.8309 23.8065 33.6673L23.7961 33.6553C25.1052 32.2733 26.3384 30.7835 27.4688 29.2158L27.5551 29.09C29.7534 28.8594 31.7238 28.503 33.6435 28.0164L33.3501 28.0793V28.0808ZM13.0744 22.4928C13.4467 23.2265 13.8369 23.9572 14.2659 24.6909C14.6938 25.4206 15.1312 26.1333 15.578 26.829C14.2852 26.6389 13.0372 26.3993 11.8442 26.1073C12.1793 24.9289 12.5993 23.7086 13.0729 22.4898L13.0744 22.4928ZM31.5838 22.4554C32.0767 23.6847 32.4952 24.911 32.8423 26.0998C31.6508 26.3933 30.3923 26.6419 29.0906 26.829C29.5374 26.1268 29.9842 25.4036 30.4027 24.6624C30.8212 23.9332 31.2129 23.1875 31.5868 22.4539L31.5838 22.4554ZM9.85 14.4462C10.4993 16.6592 11.1963 18.5099 12.008 20.2947L11.8963 20.0222C11.2023 21.527 10.5157 23.3672 9.95276 25.2613L9.87531 25.5683C8.82385 25.2434 7.97791 24.9244 7.15431 24.5666L7.32558 24.6325C4.10267 23.2534 2.01761 21.4402 2.01761 20.0027C2.01761 18.5653 4.10267 16.7431 7.32558 15.37C8.10748 15.0331 8.96533 14.7292 9.85 14.4462ZM34.7799 14.4387C35.6809 14.7187 36.5373 15.0316 37.3385 15.37C40.5615 16.755 42.6465 18.5653 42.6465 20.0027C42.6376 21.4402 40.5525 23.2579 37.3296 24.634C36.5477 24.9709 35.6913 25.2733 34.8082 25.5563C34.1529 23.3358 33.4559 21.4866 32.6472 19.6988L32.7604 19.9803C33.4514 18.477 34.1395 16.6368 34.7009 14.7426L34.7799 14.4342V14.4387ZM29.0787 13.1764C30.373 13.3696 31.6195 13.6062 32.8125 13.9011C32.4774 15.084 32.0589 16.2999 31.5838 17.5187C31.2114 16.7895 30.8212 16.0543 30.3923 15.3221C29.9738 14.5884 29.527 13.8742 29.0802 13.1779L29.0787 13.1764ZM15.5675 13.1764C15.1207 13.8817 14.6739 14.6034 14.2569 15.3476C13.8384 16.0768 13.4467 16.8104 13.0744 17.5441C12.5814 16.3163 12.1629 15.093 11.8159 13.9011C13.0074 13.6212 14.2629 13.3711 15.566 13.1794L15.5675 13.1764ZM22.3321 12.7003C23.7097 12.7003 25.0814 12.7632 26.4307 12.874C27.1863 13.963 27.92 15.123 28.6319 16.3538C29.324 17.5516 29.9554 18.7655 30.5264 19.9953C29.953 21.2216 29.3245 22.4464 28.6409 23.6442C27.9334 24.8795 27.2022 26.0549 26.4441 27.1435C25.0888 27.2618 23.7157 27.3261 22.3306 27.3261C20.9529 27.3261 19.5813 27.2603 18.2319 27.1525C17.4769 26.0639 16.7396 24.899 16.0307 23.6727C15.3387 22.4748 14.7072 21.261 14.1363 20.0312C14.7007 18.8019 15.3382 17.5741 16.0218 16.3747C16.7292 15.1394 17.4605 13.9685 18.2185 12.88C19.5738 12.7602 20.947 12.6973 22.3321 12.6973V12.7003ZM22.3038 7.78758C23.1676 8.68597 23.9956 9.63977 24.7746 10.634L24.8341 10.7133C24.015 10.6759 23.178 10.6505 22.3306 10.6505C21.4742 10.6505 20.6283 10.6684 19.7987 10.7133C20.6268 9.63527 21.4459 8.68148 22.3142 7.77261L22.3023 7.78458L22.3038 7.78758ZM13.2174 2.07978C16.275 2.64278 18.9066 4.17154 20.8561 6.33368L20.8666 6.34566C19.5574 7.72918 18.3243 9.21902 17.1939 10.7897L17.1075 10.9155C14.9107 11.1446 12.9404 11.4979 11.0221 11.9846L11.314 11.9217C11.1055 11.0053 10.9506 10.1174 10.8419 9.26544C10.4145 5.77068 10.9417 3.05304 12.1704 2.32983C12.4772 2.18459 12.8361 2.09475 13.2144 2.08278H13.2189L13.2174 2.07978ZM31.4021 2.04235V2.05433C31.4214 2.05433 31.4438 2.05283 31.4676 2.05283C31.8236 2.05283 32.1587 2.14117 32.4535 2.29689L32.4416 2.2909C33.6808 3.00513 34.2184 5.72427 33.7999 9.22201C33.7001 10.083 33.5363 10.9904 33.3352 11.9157C31.7193 11.4994 29.7519 11.1476 27.7443 10.9335L27.5537 10.917C26.3235 9.21902 25.0814 7.72619 23.7484 6.3202L23.7663 6.33817C25.7188 4.15208 28.349 2.61283 31.3231 2.05732L31.4065 2.04385L31.4021 2.04235ZM31.411 0.00299443C27.7741 0.558501 24.6256 2.33433 22.3261 4.89625L22.3142 4.90972C19.9983 2.3493 16.8498 0.585453 13.3023 0.0509089L13.2189 0.0404277C13.1995 0.0404277 13.1757 0.0404277 13.1518 0.0404277C12.4206 0.0404277 11.734 0.233582 11.1398 0.571977L11.1606 0.561496C8.60194 2.04534 8.02855 6.66908 9.34958 12.4712C3.68417 14.2306 -0.000427246 17.0425 -0.000427246 20.0057C-0.000427246 22.9809 3.70353 25.8004 9.38533 27.5463C8.07472 33.3708 8.66002 38.0021 11.2246 39.4844C11.7876 39.8093 12.4638 39.9995 13.1831 39.9995C13.2159 39.9995 13.2486 39.9995 13.2799 39.998H13.2755C16.9124 39.4425 20.0608 37.6652 22.3604 35.1018L22.3723 35.0883C24.6882 37.6502 27.8366 39.414 31.3842 39.9486L31.4676 39.9591C31.49 39.9591 31.5182 39.9591 31.5451 39.9591C32.2719 39.9591 32.9555 39.7674 33.5467 39.4335L33.5259 39.444C36.083 37.9616 36.6579 33.3379 35.3369 27.5343C40.9814 25.7899 44.666 22.9719 44.666 20.0042C44.666 17.0291 40.9621 14.2096 35.2803 12.4592C36.5909 6.64063 36.0056 2.00492 33.441 0.521069C32.872 0.193155 32.1899 0 31.4631 0C31.4438 0 31.4244 0 31.4051 0H31.408L31.411 0.00299443ZM26.4828 20.0057C26.4828 22.3161 24.6197 24.1893 22.3216 24.1893C20.0236 24.1893 18.1605 22.3161 18.1605 20.0057C18.1605 17.6954 20.0236 15.8222 22.3216 15.8222C23.4714 15.8222 24.511 16.2909 25.2646 17.047C26.0182 17.8047 26.4828 18.8498 26.4828 20.0057Z" fill="#181818"/>
</svg>
