<svg width="40" height="40" viewBox="0 0 40 40" fill="none" xmlns="http://www.w3.org/2000/svg">
<path d="M-0.000183105 19.9997V39.9995H39.9996V0H-0.000183105V19.9997ZM32.2347 18.4064C33.2513 18.6598 34.0247 19.1114 34.7363 19.8481C35.1047 20.2414 35.6513 20.9581 35.6947 21.1314C35.708 21.1814 33.968 22.3481 32.9147 23.003C32.8763 23.028 32.723 22.863 32.553 22.6097C32.0363 21.8597 31.498 21.5364 30.673 21.4797C29.4597 21.3964 28.6797 22.0314 28.6864 23.0914C28.6753 23.352 28.734 23.6109 28.8564 23.8414C29.123 24.393 29.6197 24.7247 31.173 25.3963C34.038 26.6297 35.263 27.4413 36.0247 28.5963C36.8747 29.8846 37.0663 31.9429 36.488 33.4729C35.8547 35.1362 34.2797 36.2662 32.063 36.6395C31.378 36.7612 29.753 36.7429 29.0164 36.6095C27.4097 36.3229 25.8864 35.5296 24.9464 34.4879C24.578 34.0829 23.8597 33.0212 23.9047 32.9463C23.923 32.9196 24.088 32.8179 24.2714 32.7113C24.4514 32.6096 25.123 32.2213 25.758 31.8529L26.908 31.1863L27.1497 31.5429C27.4864 32.0563 28.2214 32.7613 28.6664 32.9963C29.943 33.6696 31.6947 33.5746 32.558 32.7996C32.7316 32.6533 32.869 32.4689 32.9595 32.2608C33.05 32.0526 33.0912 31.8263 33.0797 31.5996C33.0797 31.1363 33.0213 30.9329 32.7797 30.5829C32.4697 30.1396 31.8347 29.7663 30.0314 28.983C27.968 28.0946 27.0797 27.543 26.2664 26.6663C25.7587 26.0878 25.3839 25.4052 25.168 24.6664C25.0164 24.1014 24.978 22.6847 25.098 22.1147C25.523 20.1197 27.028 18.7314 29.1997 18.3181C29.9047 18.1848 31.543 18.2348 32.2347 18.4064ZM22.8447 20.0764L22.8581 21.7147H17.6497V36.5079H13.9664V21.7147H8.76311V20.1081C8.76311 19.2181 8.78145 18.4748 8.80645 18.4581C8.82645 18.4314 11.9948 18.4181 15.8347 18.4248L22.8264 18.4448L22.8447 20.0764Z" fill="#181818"/>
</svg>
