<svg width="757" height="141" viewBox="0 0 757 141" fill="none" xmlns="http://www.w3.org/2000/svg">
<path d="M69.4677 25.2362C69.4677 25.2362 79.1773 27.6121 90.2926 29.5643C91.037 26.0004 91.8409 22.2108 92.6685 18.548C93.944 12.2628 95.6265 6.06706 97.7054 0C83.054 4.89438 50.8604 5.85267 50.8604 5.85267C33.7102 6.79908 15.5939 15.1267 11.5747 33.1123C8.34341 47.6411 0 91.8489 0 91.8489H0.0435584C1.00184 89.8888 19.3597 52.7097 25.937 40.3906C34.324 24.7254 53.2996 21.6802 69.4677 25.2362Z" fill="#DCD7BA"/>
<path d="M90.2846 29.5648C88.7007 37.2667 87.3662 44.0262 86.7485 46.6714C80.3058 73.7806 65.3376 88.2103 42.2239 89.5052L23.3948 90.5506L0.0316788 91.8455L0 91.9286L39.8124 100.676C61.5916 105.452 79.2406 95.9241 92.2408 72.4263C95.2978 66.8311 108.496 39.7337 114.479 31.9209C106.357 31.9346 98.2522 31.1453 90.2846 29.5648Z" fill="#DCD7BA"/>
<path d="M29.0273 42.0458C36.2977 28.46 53.1256 25.2332 68.6758 28.6493C68.6948 28.654 68.7195 28.6604 68.75 28.6678C68.8267 28.6866 68.9394 28.7136 69.0859 28.7489C69.3794 28.8197 69.8094 28.9226 70.3584 29.0516C71.4562 29.3097 73.0336 29.6733 74.96 30.0975C77.9855 30.7638 81.882 31.5806 86.1416 32.3749C84.8657 38.5916 83.8653 43.6574 83.3516 45.8641C80.2292 58.9841 75.1249 68.6897 68.3105 75.2469C61.7582 81.5519 53.3926 85.1727 43.0371 85.9442L42.0303 86.0096L23.2129 87.0555L5.84082 88.0175C11.3624 76.8667 23.86 51.7153 29.0273 42.0458Z" fill="#DCD7BA" stroke="#FF5D62" stroke-width="7"/>
<path d="M147.711 3.57971H169.656L214.501 102.244H191.93L184.933 86.6417H132.604L125.607 102.244H102.865L147.711 3.57971ZM177.924 70.1331L165.997 42.1131C162.829 34.6923 158.842 24.8442 158.683 24.5432C158.525 24.8442 154.549 34.6923 151.369 42.1131L139.442 70.1331H177.924Z" fill="#DCD7BA"/>
<path d="M226.275 3.57971H270.487C300.863 3.57971 316.765 20.5437 316.765 41.5944C316.74 48.1023 314.894 54.4733 311.437 59.9874C307.98 65.5015 303.05 69.9389 297.204 72.798L318.674 102.244H293.07L277.167 78.7061C274.275 79.1832 271.351 79.4361 268.42 79.4625H248.541V102.244H226.279L226.275 3.57971ZM271.12 61.2907C284.16 61.2907 293.224 52.3533 293.224 41.5983C293.224 30.388 284.16 21.605 271.279 21.605H248.537V61.2907H271.12Z" fill="#DCD7BA"/>
<path d="M320.74 3.57593H343.481L366.052 61.4968C368.278 67.1 372.095 78.0054 372.253 78.7618C372.574 78.0054 376.213 67.1 378.455 61.4968L401.354 3.57593H423.926L383.876 102.394H360.817L320.74 3.57593Z" fill="#DCD7BA"/>
<path d="M457.667 3.57971H479.605L524.45 102.244H501.879L494.882 86.6417H442.56L435.563 102.244H412.822L457.667 3.57971ZM487.881 70.1331L475.954 42.1131C472.786 34.6923 468.798 24.8442 468.64 24.5432C468.481 24.8442 464.506 34.6923 461.322 42.1131L449.395 70.1331H487.881Z" fill="#DCD7BA"/>
<path d="M536.232 3.57593H558.498V84.068H618.141V102.244H536.24L536.232 3.57593Z" fill="#DCD7BA"/>
<path d="M672.046 90.5815L680.156 74.2233C689.95 81.4489 701.86 85.2304 714.028 84.9783C722.617 84.9783 733.111 81.1927 733.111 73.467C733.111 65.8957 723.888 63.9237 714.824 61.8052C695.583 57.5642 675.701 51.3551 675.701 30.9183C675.701 11.9862 694.312 2.59343 714.028 2.59343C727.347 2.28609 740.459 5.9217 751.718 13.0435L743.608 29.4017C734.645 24.1426 724.42 21.42 714.028 21.5255C708.619 21.5255 698.442 23.5054 698.442 30.9183C698.442 37.2778 705.915 39.5508 716.095 41.8238C734.386 45.9143 756.331 52.4282 756.331 73.4789C756.331 94.6839 734.703 103.922 714.028 103.922C689.378 103.922 677.768 94.9848 672.054 90.5934" fill="#DCD7BA"/>
<path d="M103.448 118.676C301.044 109.965 496.431 114.717 693.81 125.78C713.356 126.968 735.602 128.291 755.093 129.717C728.823 128.719 699.683 127.966 673.266 127.396C544.219 124.723 413.726 125.309 284.738 130.116C268.082 130.667 235.267 132.322 218.398 133.051C201.589 134.013 179.196 135.343 162.335 136.326C147.81 137.272 118.543 139.719 103.84 140.761L103.444 118.684" fill="#DCD7BA"/>
<path d="M633.239 42.6161L655.502 30.2693V102.054H633.239V42.6161Z" fill="#DCD7BA"/>
<path d="M633.239 3.42126H655.502V17.6768L633.239 29.5088V3.42126Z" fill="#DCD7BA"/>
</svg>
