<svg width="806" height="150" viewBox="0 0 806 150" fill="none" xmlns="http://www.w3.org/2000/svg">
<path d="M74.0275 26.8926C74.0275 26.8926 84.3744 29.4245 96.2193 31.5049C97.0126 27.7071 97.8692 23.6687 98.7511 19.7654C100.11 13.0677 101.903 6.46529 104.119 0C88.5055 5.21564 54.1988 6.23683 54.1988 6.23683C35.9229 7.24536 16.6175 16.1196 12.3344 35.2858C8.89106 50.7681 0 97.8777 0 97.8777H0.0464175C1.0676 95.7889 20.6305 56.1695 27.6395 43.0417C36.577 26.3483 56.7981 23.1033 74.0275 26.8926Z" fill="#F0F0F0"/>
<path d="M96.2108 31.5054C94.5229 39.7128 93.1009 46.916 92.4426 49.7348C85.577 78.6234 69.6263 94.0003 44.9954 95.3801L24.9304 96.4942L0.0337582 97.874L0 97.9627L42.4256 107.284C65.6344 112.373 84.4419 102.22 98.2954 77.1802C101.553 71.2177 115.618 42.3418 121.994 34.0161C113.338 34.0307 104.701 33.1896 96.2108 31.5054Z" fill="#F0F0F0"/>
<path d="M29.8486 44.2258C37.9861 29.0194 56.6697 25.6397 73.457 29.3303C73.4586 29.3307 73.4602 29.3318 73.4619 29.3323C73.4829 29.3374 73.5143 29.3449 73.5547 29.3547C73.6354 29.3744 73.7543 29.4033 73.9092 29.4407C74.2197 29.5156 74.6753 29.625 75.2578 29.762C76.4228 30.0358 78.0981 30.4217 80.1445 30.8723C83.6494 31.6441 88.2521 32.6051 93.2529 33.5178C91.7757 40.6847 90.6035 46.6522 90.0195 49.1594C86.6561 63.2925 81.1282 73.873 73.6475 81.0715C66.4355 88.0114 57.2416 91.9705 45.9551 92.8118L44.8564 92.8831L24.8047 93.9973L4.1875 95.1399C9.45628 84.4906 24.0165 55.1364 29.8477 44.2249L29.8486 44.2258Z" fill="#F0F0F0" stroke="#0F6867" stroke-width="5"/>
<path d="M157.406 3.8147H180.792L228.581 108.955H204.528L197.072 92.3288H141.308L133.851 108.955H109.617L157.406 3.8147ZM189.603 74.7365L176.893 44.8774C173.517 36.9695 169.268 26.4749 169.099 26.1542C168.93 26.4749 164.694 36.9695 161.305 44.8774L148.595 74.7365H189.603Z" fill="#F0F0F0"/>
<path d="M241.127 3.8147H288.241C320.611 3.8147 337.558 21.8922 337.558 44.3246C337.53 51.2597 335.563 58.0489 331.88 63.9249C328.196 69.801 322.942 74.5296 316.712 77.5764L339.592 108.955H312.307L295.36 83.8723C292.278 84.3807 289.162 84.6501 286.039 84.6783H264.855V108.955H241.132L241.127 3.8147ZM288.916 65.3137C302.812 65.3137 312.471 55.7897 312.471 44.3288C312.471 32.3826 302.812 23.0231 289.085 23.0231H264.851V65.3137H288.916Z" fill="#F0F0F0"/>
<path d="M341.793 3.81055H366.027L390.08 65.5332C392.451 71.5042 396.519 83.1255 396.688 83.9315C397.03 83.1255 400.908 71.5042 403.296 65.5332L427.699 3.81055H451.752L409.073 109.115H384.501L341.793 3.81055Z" fill="#F0F0F0"/>
<path d="M487.708 3.8147H511.085L558.874 108.955H534.822L527.365 92.3288H471.609L464.153 108.955H439.919L487.708 3.8147ZM519.905 74.7365L507.195 44.8774C503.819 36.9695 499.57 26.4749 499.401 26.1542C499.232 26.4749 494.995 36.9695 491.603 44.8774L478.893 74.7365H519.905Z" fill="#F0F0F0"/>
<path d="M571.43 3.81055H595.157V89.586H658.716V108.955H571.438L571.43 3.81055Z" fill="#F0F0F0"/>
<path d="M716.158 96.5273L724.8 79.0954C735.237 86.7952 747.929 90.8249 760.896 90.5563C770.049 90.5563 781.231 86.5222 781.231 78.2894C781.231 70.2212 771.404 68.1197 761.744 65.8621C741.241 61.3428 720.053 54.7261 720.053 32.9479C720.053 12.7731 739.886 2.76381 760.896 2.76381C775.089 2.43628 789.062 6.31053 801.06 13.8998L792.418 31.3317C782.866 25.7274 771.97 22.8262 760.896 22.9386C755.132 22.9386 744.287 25.0484 744.287 32.9479C744.287 39.7248 752.25 42.147 763.099 44.5691C782.59 48.9282 805.976 55.8697 805.976 78.302C805.976 100.899 782.928 110.744 760.896 110.744C734.628 110.744 722.256 101.22 716.167 96.5399" fill="#F0F0F0"/>
<path d="M110.238 126.466C320.804 117.183 529.016 122.246 739.351 134.037C760.18 135.302 783.886 136.712 804.656 138.231C776.662 137.168 745.609 136.366 717.459 135.758C579.941 132.91 440.882 133.534 303.427 138.657C285.679 139.244 250.71 141.008 232.733 141.784C214.82 142.809 190.958 144.227 172.99 145.274C157.512 146.282 126.323 148.89 110.655 150L110.233 126.475" fill="#F0F0F0"/>
<path d="M674.805 45.4134L698.528 32.2561V108.752H674.805V45.4134Z" fill="#F0F0F0"/>
<path d="M674.805 3.64575H698.528V18.837L674.805 31.4456V3.64575Z" fill="#F0F0F0"/>
</svg>
