<svg width="36" height="40" viewBox="0 0 36 40" fill="none" xmlns="http://www.w3.org/2000/svg">
<path d="M35.5539 0L32.2201 36.1104L17.7759 39.9995L3.33156 36.1104L-0.00158691 0H35.5539ZM28.8361 7.34248H17.7629H6.49367L7.03262 11.7031H17.7629H18.3657L17.7629 11.954L7.42479 16.2597L7.76765 20.5222L17.7629 20.5546L23.1201 20.5716L22.7772 26.255L17.7629 27.6667V27.6622L17.7218 27.6737L12.8792 26.4512L12.5853 22.9232H12.5693H8.07755H8.06174L8.64968 29.7339L17.763 32.4289V32.4241L17.7795 32.4289L26.844 29.783L28.0198 16.2597H17.763H17.7377L17.763 16.2488L28.3955 11.7031L28.8361 7.34248Z" fill="#181818"/>
</svg>
