<svg width="30" height="44" viewBox="0 0 30 44" fill="none" xmlns="http://www.w3.org/2000/svg">
<path d="M14.999 2H8.33241C4.65054 2 1.66577 4.98474 1.66577 8.66658C1.66577 12.3484 4.65054 15.3332 8.33241 15.3332M14.999 2V15.3332M14.999 2H21.6657C25.3477 2 28.3323 4.98474 28.3323 8.66658C28.3323 12.3484 25.3477 15.3332 21.6657 15.3332M8.33241 15.3332H14.999M8.33241 15.3332C4.65054 15.3332 1.66577 18.3178 1.66577 21.9997C1.66577 25.6817 4.65054 28.6663 8.33241 28.6663M14.999 15.3332H21.6657M14.999 15.3332V28.6663M21.6657 15.3332C25.3477 15.3332 28.3323 18.3178 28.3323 21.9997C28.3323 25.6817 25.3477 28.6663 21.6657 28.6663C17.9837 28.6663 14.999 25.6817 14.999 21.9997C14.999 18.3178 17.9837 15.3332 21.6657 15.3332ZM14.999 28.6663H8.33241M14.999 28.6663V35.3329C14.999 39.0149 12.0144 41.9995 8.33241 41.9995C4.65054 41.9995 1.66577 39.0149 1.66577 35.3329C1.66577 31.651 4.65054 28.6663 8.33241 28.6663" stroke="#181818" stroke-width="3" stroke-linecap="round" stroke-linejoin="round"/>
</svg>
