<svg width="83" height="83" viewBox="0 0 83 83" fill="none" xmlns="http://www.w3.org/2000/svg">
<path d="M79 4L41.5 41.5M79 4V25.0938M79 4H57.9062M74.3125 43.8438V64C74.3125 69.2505 74.3125 71.8759 73.2906 73.8813C72.392 75.6452 70.9577 77.0795 69.1938 77.9781C67.1884 79 64.563 79 59.3125 79H19C13.7495 79 11.1243 79 9.11884 77.9781C7.3548 77.0795 5.92061 75.6452 5.02183 73.8813C4 71.8759 4 69.2505 4 64V23.6875C4 18.437 4 15.8118 5.02183 13.8063C5.92061 12.0423 7.3548 10.6081 9.11884 9.70933C11.1243 8.6875 13.7495 8.6875 19 8.6875H39.1562" stroke="#F0F0F0" stroke-width="8" stroke-linecap="round" stroke-linejoin="round"/>
</svg>
