<svg width="81" height="81" viewBox="0 0 81 81" fill="none" xmlns="http://www.w3.org/2000/svg">
<path d="M75.3125 5.90625L25 56M75.3125 5.90625V21.5M75.3125 5.90625L59 5.6875M75.3125 40.8438V61C75.3125 66.2505 75.3125 68.8759 74.2906 70.8813C73.392 72.6452 71.9577 74.0795 70.1938 74.9781C68.1884 76 65.563 76 60.3125 76H20C14.7495 76 12.1243 76 10.1188 74.9781C8.3548 74.0795 6.92061 72.6452 6.02183 70.8813C5 68.8759 5 66.2505 5 61V20.6875C5 15.437 5 12.8118 6.02183 10.8063C6.92061 9.0423 8.3548 7.60811 10.1188 6.70933C12.1243 5.6875 14.7495 5.6875 20 5.6875H40.1562" stroke="#252525" stroke-width="10" stroke-linecap="round" stroke-linejoin="round"/>
</svg>
