<svg width="100" height="100" viewBox="0 0 100 100" fill="none" xmlns="http://www.w3.org/2000/svg">
<path d="M97.68 97.6837C96.1857 99.1673 94.1652 100 92.0594 100C89.9536 100 87.9331 99.1673 86.4388 97.6837L62.084 73.3298C53.8188 78.8061 43.814 81.0172 34.0106 79.534C24.2073 78.0509 15.3043 72.9792 9.02918 65.303C2.75403 57.6267 -0.445943 47.8933 0.0501243 37.9912C0.546191 28.089 4.70293 18.7241 11.7139 11.7134C18.7248 4.70276 28.09 0.546172 37.9925 0.0501225C47.8951 -0.445927 57.6288 2.75393 65.3053 9.02886C72.9818 15.3038 78.0537 24.2064 79.5369 34.0094C81.0201 43.8124 78.809 53.8169 73.3324 62.0818L97.68 86.4357C99.1659 87.9303 100 89.9522 100 92.0597C100 94.1672 99.1659 96.1891 97.68 97.6837ZM52.048 69.6857C59.4694 66.6863 65.5074 61.03 68.984 53.82C72.4607 46.6101 73.1268 38.3636 70.8524 30.6892C68.5779 23.0147 63.5261 16.4627 56.6822 12.3112C49.8384 8.15969 41.6934 6.7064 33.8361 8.23482C25.9787 9.76323 18.9725 14.1637 14.184 20.578C9.39561 26.9922 7.16839 34.9601 7.93681 42.9275C8.70524 50.8949 12.4142 58.2903 18.3402 63.6713C24.2663 69.0522 31.9844 72.0327 39.989 72.0314C44.1203 72.0379 48.2207 71.2412 52.048 69.6857Z" fill="#181818"/>
</svg>
