<svg width="67" height="40" viewBox="0 0 67 40" fill="none" xmlns="http://www.w3.org/2000/svg">
<path d="M33.6655 0C24.7766 0 19.2211 4.44439 16.9989 13.3332C20.3322 8.88878 24.2211 7.22213 28.6655 8.33323C31.2016 8.96655 33.0127 10.8054 35.021 12.8443C38.2904 16.1609 42.071 19.9997 50.3321 19.9997C59.2209 19.9997 64.7764 15.5554 66.9986 6.66658C63.6653 11.111 59.7765 12.7776 55.332 11.6665C52.7959 11.0332 50.9848 9.19433 48.9765 7.15546C45.7099 3.83884 41.9293 0 33.6655 0ZM16.9989 19.9997C8.11002 19.9997 2.55449 24.4441 0.332275 33.3329C3.66559 28.8885 7.55447 27.2219 11.9989 28.333C14.535 28.9663 16.3461 30.8052 18.3544 32.844C21.6238 36.1607 25.4044 39.9995 33.6655 39.9995C42.5543 39.9995 48.1098 35.5551 50.3321 26.6663C46.9987 31.1107 43.1099 32.7774 38.6654 31.6663C36.1293 31.0329 34.3182 29.1941 32.3099 27.1552C29.0433 23.8386 25.2627 19.9997 16.9989 19.9997Z" fill="#181818"/>
</svg>
