<svg width="372" height="150" viewBox="0 0 372 150" fill="none" xmlns="http://www.w3.org/2000/svg">
<path d="M117.581 39.8789C117.581 36.9633 117.581 24.4058 126.68 24.4058C134.267 24.4058 135.216 34.0477 135.216 38.8748C135.216 46.4093 133.699 55.047 126.207 55.047C118.05 55.047 117.581 43.8903 117.581 39.8789ZM99.753 14.8657C99.8472 16.9755 99.9439 17.578 100.13 23.1042V76.334H117.961V59.2618C119.591 61.5142 121.749 63.3327 124.245 64.5585C126.741 65.7842 129.499 66.3797 132.278 66.2929C143.09 66.2929 153.521 58.6618 153.521 39.0731C153.521 18.3788 141.003 13.5566 133.039 13.5566C129.914 13.4209 126.81 14.1326 124.055 15.6164C121.301 17.1003 118.999 19.3012 117.393 21.9861L117.202 14.8532H99.7554L99.753 14.8657ZM58.7014 39.9806C58.7014 32.4461 60.2187 23.91 68.0903 23.91C75.2009 23.91 77.1942 31.2461 77.1942 39.9806C77.1942 47.0117 75.6769 55.9544 67.8994 55.9544C66.4793 56.0356 65.0665 55.6981 63.8364 54.9837C62.6063 54.2692 61.613 53.2094 60.9798 51.9355C59.3042 48.181 58.5242 44.0883 58.7014 39.9806ZM40.2136 39.8789C39.8612 46.9219 42.3157 53.8173 47.039 59.0535C51.6851 63.7641 58.5105 66.4913 69.0374 66.4913C78.8057 66.4913 84.684 63.3773 88.6657 59.2568C93.4161 53.7076 95.8885 46.565 95.5853 39.2665C95.5853 21.3861 83.5436 13.1475 68.0854 13.1475C49.2158 13.1475 40.2111 24.4058 40.2111 39.8739M26.4562 15.069V0L9.29474 7.23696V15.0739H0V27.1305H9.00963V51.338C9.00963 61.0815 11.8533 66.107 26.0768 66.107C29.9535 66.1695 33.8274 65.8674 37.6475 65.2046V53.3512C36.1714 53.5796 34.6783 53.6808 33.1849 53.6537C26.3595 53.6537 26.3595 50.8397 26.2653 44.6093V27.1281H37.7417V15.0714L26.4562 15.069Z" fill="#F0F0F0"/>
<path d="M226.686 130.111H245.563V108.713C245.563 103.288 247.18 95.1513 258.785 95.1513C260.136 95.1833 261.484 95.2842 262.824 95.4538V79.2815C258.485 79.1849 249.297 78.8799 244.958 90.1308L244.653 79.6857H226.183L226.679 90.4333V130.101L226.686 130.111ZM200.037 106.31C200.29 109.525 199.807 112.754 198.626 115.754C197.985 117.196 196.937 118.421 195.611 119.277C194.284 120.134 192.737 120.585 191.159 120.576C190.239 120.64 189.316 120.508 188.452 120.189C187.587 119.871 186.8 119.372 186.142 118.726C185.484 118.081 184.97 117.303 184.635 116.445C184.3 115.586 184.15 114.666 184.197 113.746C184.197 106.511 191.967 106.41 200.039 106.308M218.817 130.109C218.1 126.946 217.76 123.71 217.806 120.467V96.9636C217.999 94.5683 217.705 92.1586 216.942 89.8799C216.178 87.6012 214.962 85.5005 213.365 83.7045C208.02 78.4783 198.326 77.8783 193.779 77.8783C184.591 77.8783 176.719 80.1865 172.782 84.2054C171.454 85.6116 170.422 87.2695 169.745 89.0814C169.068 90.8932 168.762 92.8222 168.843 94.7546H187.011C186.912 89.0275 190.234 87.1185 193.777 87.1185C199.531 87.1185 200.238 92.139 200.133 97.5636C178.328 96.6612 165.511 101.684 165.511 115.444C165.511 124.387 170.965 131.115 183.376 131.115C193.777 131.115 197.711 126.293 200.032 122.877C199.97 125.303 200.173 127.729 200.639 130.111H218.812L218.817 130.109ZM126.983 130.109H145.86V108.71C145.86 103.286 147.471 95.1488 159.084 95.1488C160.435 95.1809 161.783 95.2819 163.123 95.4513V79.2791C158.784 79.1824 149.594 78.8774 145.258 90.1283L144.953 79.6832H126.482L126.978 90.4308V130.099L126.983 130.109ZM99.2152 103.085C99.2152 106.7 98.9103 117.351 89.8263 117.351C81.4488 117.351 80.2365 108.614 80.2365 103.288C80.2365 94.8587 83.6653 89.0226 90.0271 89.0226C99.2152 89.0226 99.2152 100.474 99.2152 103.085ZM100.128 79.3782V87.0144C97.6037 82.9955 93.1658 78.4733 83.3703 78.4733C67.927 78.4733 60.6578 89.8234 60.6578 103.487C60.6578 121.87 72.469 128.5 83.1695 128.5C86.3564 128.602 89.519 127.912 92.3744 126.493C95.2299 125.074 97.6892 122.97 99.5326 120.368V126.995C99.5326 132.42 98.9251 139.252 89.437 139.252C83.9826 139.252 81.2555 136.642 81.1588 132.824H63.2833C63.1826 134.925 63.5465 137.023 64.3491 138.967C65.1518 140.912 66.3734 142.656 67.927 144.075C73.6813 149.197 83.2711 150 89.023 150C99.4185 150 105.579 147.486 109.918 144.372C116.781 139.55 117.991 132.417 117.991 126.392V79.3832L100.128 79.3782ZM35.0247 106.303C35.2777 109.517 34.7952 112.747 33.614 115.747C32.9718 117.189 31.923 118.414 30.5959 119.27C29.2688 120.127 27.7209 120.578 26.1415 120.569C25.2219 120.633 24.2991 120.501 23.4341 120.182C22.5691 119.863 21.7814 119.365 21.1232 118.719C20.4649 118.074 19.9509 117.296 19.615 116.438C19.2792 115.579 19.1292 114.659 19.1748 113.738C19.1748 106.504 26.9473 106.405 35.0247 106.303ZM53.8026 130.101C53.0852 126.939 52.7457 123.702 52.7911 120.46V96.9562C52.9831 94.5609 52.6887 92.1515 51.9257 89.873C51.1626 87.5944 49.9466 85.4937 48.3507 83.6971C43.0005 78.4708 33.3116 77.8708 28.7646 77.8708C19.5765 77.8708 11.7048 80.179 7.76776 84.1979C6.43976 85.6038 5.4073 87.2618 4.73147 89.0738C4.05564 90.8858 3.75018 92.815 3.83318 94.7472H22.0012C21.902 89.0201 25.2242 87.111 28.7621 87.111C34.5165 87.111 35.2231 92.1315 35.1189 97.5562C13.3139 96.6537 0.496094 101.677 0.496094 115.437C0.496094 124.379 5.95046 131.108 18.3641 131.108C28.7596 131.108 32.6967 126.286 35.0198 122.869C34.9556 125.296 35.1594 127.722 35.6272 130.104H53.8002L53.8026 130.101Z" fill="#F0F0F0"/>
<path d="M336.138 104.461C336.138 123.428 329.853 129.135 317.673 129.135C311.917 129.329 306.247 127.705 301.466 124.494C301.762 127.904 301.86 131.329 301.759 134.75V146.267H287.319V80.172H299.103L300.184 87.1412C302.67 84.5389 305.658 82.468 308.968 81.0541C312.277 79.6401 315.839 78.9124 319.438 78.9151C331.425 78.9027 336.138 88.3015 336.138 104.461ZM321.208 104.461C321.208 92.9452 319.049 90.1387 313.644 90.1387C309.429 90.1387 306.179 91.7824 301.756 94.6856V116.558C305.319 117.693 309.019 118.344 312.757 118.491C318.952 118.491 321.208 116.364 321.208 104.461Z" fill="#F0F0F0"/>
<path d="M360.792 112.298C360.792 115.591 362.659 117.135 366.291 117.135H370.218L371.887 127.104C368.164 128.414 364.243 129.069 360.296 129.041C351.753 129.041 346.348 124.298 346.348 115.881V60.1396H360.787V112.298H360.792Z" fill="#F0F0F0"/>
<path d="M267.72 131.562C274.231 131.562 279.509 126.363 279.509 119.949C279.509 113.536 274.231 108.336 267.72 108.336C261.209 108.336 255.931 113.536 255.931 119.949C255.931 126.363 261.209 131.562 267.72 131.562Z" fill="#F0F0F0"/>
</svg>
