<svg width="554" height="225" viewBox="0 0 554 225" fill="none" xmlns="http://www.w3.org/2000/svg">
<path d="M175.161 60.0969C175.161 55.7536 175.161 37.0467 188.716 37.0467C200.017 37.0467 201.432 51.4102 201.432 58.6011C201.432 69.8252 199.171 82.6929 188.01 82.6929C175.859 82.6929 175.161 66.0728 175.161 60.0969ZM148.602 22.8347C148.742 25.9778 148.886 26.8752 149.163 35.1077V114.404H175.726V88.9716C178.155 92.327 181.369 95.0361 185.088 96.8621C188.806 98.688 192.915 99.5752 197.055 99.4459C213.162 99.4459 228.7 88.0778 228.7 58.8966C228.7 28.0682 210.052 20.8846 198.189 20.8846C193.533 20.6824 188.908 21.7426 184.805 23.9532C180.702 26.1637 177.273 29.4423 174.88 33.442L174.596 22.8162H148.606L148.602 22.8347ZM87.4475 60.2484C87.4475 49.0243 89.7078 36.3081 101.434 36.3081C112.027 36.3081 114.996 47.2367 114.996 60.2484C114.996 70.7227 112.736 84.0447 101.15 84.0447C99.0342 84.1656 96.9296 83.6628 95.0971 82.5985C93.2646 81.5342 91.785 79.9553 90.8417 78.0577C88.3455 72.4645 87.1835 66.3676 87.4475 60.2484ZM59.9062 60.0969C59.3812 70.5889 63.0376 80.8609 70.074 88.6613C76.9953 95.6787 87.1631 99.7414 102.845 99.7414C117.397 99.7414 126.154 95.1026 132.085 88.9642C139.162 80.6975 142.845 70.0573 142.394 59.1847C142.394 32.5482 124.455 20.2752 101.427 20.2752C73.3167 20.2752 59.9025 37.0467 59.9025 60.0896M39.4118 23.1376V0.689362L13.8464 11.4703V23.145H0V41.1057H13.4216V77.1676C13.4216 91.6825 17.6579 99.1689 38.8467 99.1689C44.6217 99.2621 50.3928 98.812 56.0836 97.8246V80.1666C53.8845 80.5069 51.6603 80.6576 49.4355 80.6172C39.2677 80.6172 39.2677 76.4253 39.1274 67.1439V41.102H56.2239V23.1413L39.4118 23.1376Z" fill="#F0F0F0"/>
<path d="M337.695 194.516H365.816V162.639C365.816 154.558 368.224 142.436 385.513 142.436C387.525 142.484 389.533 142.634 391.529 142.887V118.795C385.066 118.651 371.378 118.197 364.915 134.957L364.461 119.397H336.945L337.684 135.408V194.501L337.695 194.516ZM297.995 159.06C298.372 163.848 297.653 168.659 295.894 173.128C294.938 175.277 293.377 177.101 291.401 178.377C289.426 179.653 287.121 180.325 284.769 180.312C283.399 180.407 282.025 180.21 280.737 179.736C279.449 179.261 278.276 178.518 277.296 177.556C276.315 176.595 275.55 175.436 275.051 174.157C274.552 172.878 274.329 171.508 274.398 170.136C274.398 159.359 285.973 159.208 297.999 159.056M325.972 194.513C324.903 189.801 324.398 184.98 324.465 180.149V145.136C324.753 141.568 324.315 137.978 323.178 134.584C322.041 131.189 320.229 128.06 317.851 125.384C309.888 117.598 295.447 116.705 288.673 116.705C274.985 116.705 263.259 120.143 257.394 126.13C255.416 128.225 253.878 130.695 252.87 133.394C251.862 136.093 251.405 138.967 251.525 141.845H278.59C278.442 133.314 283.392 130.47 288.669 130.47C297.242 130.47 298.294 137.949 298.139 146.03C265.656 144.686 246.561 152.168 246.561 172.666C246.561 185.988 254.687 196.012 273.176 196.012C288.669 196.012 294.531 188.828 297.988 183.739C297.895 187.354 298.198 190.968 298.893 194.516H325.965L325.972 194.513ZM189.167 194.513H217.288V162.635C217.288 154.554 219.689 142.433 236.988 142.433C239 142.48 241.008 142.631 243.005 142.883V118.791C236.541 118.647 222.85 118.193 216.39 134.954L215.936 119.393H188.421L189.159 135.404V194.498L189.167 194.513ZM147.801 154.255C147.801 159.64 147.347 175.507 133.814 175.507C121.335 175.507 119.529 162.491 119.529 154.558C119.529 142 124.636 133.306 134.114 133.306C147.801 133.306 147.801 150.366 147.801 154.255ZM149.16 118.939V130.315C145.4 124.328 138.789 117.591 124.197 117.591C101.191 117.591 90.3622 134.499 90.3622 154.853C90.3622 182.24 107.957 192.116 123.898 192.116C128.645 192.267 133.357 191.24 137.61 189.126C141.864 187.012 145.528 183.877 148.274 180.001V189.874C148.274 197.955 147.369 208.134 133.235 208.134C125.109 208.134 121.047 204.245 120.902 198.557H94.2734C94.1233 201.687 94.6654 204.812 95.8611 207.709C97.0568 210.606 98.8767 213.204 101.191 215.317C109.763 222.948 124.049 224.144 132.618 224.144C148.104 224.144 157.282 220.399 163.745 215.76C173.969 208.577 175.771 197.951 175.771 188.976V118.947L149.16 118.939ZM52.1766 159.049C52.5534 163.837 51.8347 168.648 50.0751 173.117C49.1183 175.267 47.5559 177.091 45.579 178.366C43.602 179.642 41.2961 180.314 38.9433 180.301C37.5732 180.396 36.1986 180.199 34.91 179.724C33.6214 179.249 32.448 178.507 31.4674 177.545C30.4867 176.584 29.721 175.425 29.2207 174.146C28.7205 172.867 28.497 171.497 28.565 170.125C28.565 159.348 40.1436 159.2 52.1766 159.049ZM80.15 194.501C79.0813 189.79 78.5755 184.969 78.6431 180.138V145.125C78.9292 141.557 78.4907 137.968 77.3539 134.573C76.2171 131.179 74.4056 128.049 72.0283 125.373C64.0581 117.587 49.6245 116.694 42.8509 116.694C29.1633 116.694 17.4369 120.132 11.5719 126.119C9.59354 128.213 8.05548 130.683 7.0487 133.383C6.04191 136.082 5.58687 138.956 5.71051 141.834H32.7754C32.6277 133.303 37.5768 130.459 42.8472 130.459C51.4194 130.459 52.472 137.938 52.3169 146.019C19.8339 144.674 0.739258 152.157 0.739258 172.655C0.739258 185.977 8.86463 196.001 27.3572 196.001C42.8435 196.001 48.7085 188.817 52.1692 183.728C52.0737 187.343 52.3771 190.957 53.0741 194.505H80.1463L80.15 194.501Z" fill="#F0F0F0"/>
<path d="M500.745 156.305C500.745 184.56 491.383 193.062 473.237 193.062C464.663 193.351 456.215 190.932 449.094 186.148C449.535 191.228 449.68 196.33 449.53 201.427V218.583H428.02V120.122H445.574L447.184 130.504C450.888 126.627 455.339 123.542 460.269 121.436C465.199 119.329 470.506 118.245 475.867 118.249C493.724 118.231 500.745 132.232 500.745 156.305ZM478.504 156.305C478.504 139.15 475.287 134.969 467.236 134.969C460.957 134.969 456.115 137.418 449.526 141.743V174.325C454.834 176.017 460.346 176.986 465.913 177.206C475.143 177.206 478.504 174.037 478.504 156.305Z" fill="#F0F0F0"/>
<path d="M537.473 167.98C537.473 172.885 540.254 175.186 545.664 175.186H551.515L554 190.037C548.454 191.987 542.613 192.963 536.734 192.921C524.007 192.921 515.955 185.856 515.955 173.317V90.2794H537.465V167.98H537.473Z" fill="#F0F0F0"/>
<path d="M398.823 196.677C408.522 196.677 416.385 188.932 416.385 179.378C416.385 169.823 408.522 162.078 398.823 162.078C389.123 162.078 381.261 169.823 381.261 179.378C381.261 188.932 389.123 196.677 398.823 196.677Z" fill="#F0F0F0"/>
</svg>
