<svg width="49" height="49" viewBox="0 0 49 49" fill="none" xmlns="http://www.w3.org/2000/svg">
<path d="M32 24.5C32 28.6423 28.6423 32 24.5 32C20.3577 32 17 28.6423 17 24.5C17 20.3577 20.3577 17 24.5 17C28.6423 17 32 20.3577 32 24.5Z" stroke="#252525" stroke-width="4" stroke-linecap="round" stroke-linejoin="round"/>
<path d="M26.7615 2.15013C26.247 2 25.6648 2 24.5 2C23.3352 2 22.753 2 22.2385 2.15013C21.4855 2.36985 20.8203 2.8202 20.3365 3.43777C20.006 3.8597 19.7898 4.4004 19.3573 5.4818C18.7355 7.0363 17.0098 7.83678 15.4214 7.3075L13.9945 6.83202C12.9823 6.49462 12.4761 6.3259 11.9799 6.297C11.251 6.25453 10.5255 6.4258 9.89253 6.78975C9.46163 7.03753 9.0844 7.41478 8.32993 8.16925C7.52805 8.97113 7.1271 9.37205 6.8724 9.82972C6.49817 10.5021 6.33988 11.2734 6.41898 12.0388C6.4728 12.5598 6.68338 13.0862 7.10455 14.1391C7.76413 15.7881 7.1296 17.6719 5.6068 18.5858L4.91302 19.0022C3.85077 19.6395 3.31965 19.9582 2.93385 20.397C2.59245 20.7852 2.33502 21.24 2.17772 21.7325C2 22.289 2 22.9145 2 24.1657C2 25.6472 2 26.3877 2.23655 27.022C2.44557 27.5822 2.78555 28.0842 3.2281 28.4865C3.72895 28.9415 4.40987 29.214 5.77165 29.7588C7.16335 30.3153 7.8799 31.8603 7.4059 33.2823L6.86802 34.896C6.49547 36.0135 6.30917 36.5725 6.29225 37.1215C6.27187 37.7817 6.42623 38.4355 6.73968 39.0167C7.00038 39.5005 7.41695 39.917 8.25 40.75C9.08307 41.583 9.49963 41.9995 9.98313 42.2602C10.5645 42.5737 11.2183 42.7283 11.8785 42.7078C12.4275 42.6908 12.9864 42.5045 14.1041 42.132L15.4215 41.6927C17.0098 41.1635 18.7355 41.9637 19.3573 43.5182C19.7898 44.5995 20.006 45.1403 20.3365 45.5623C20.8203 46.1798 21.4855 46.6303 22.2385 46.85C22.753 47 23.3352 47 24.5 47C25.6648 47 26.247 47 26.7615 46.85C27.5145 46.6303 28.1797 46.1798 28.6635 45.5623C28.994 45.1403 29.2103 44.5995 29.6428 43.5182C30.2645 41.9637 31.9902 41.1635 33.5782 41.6933L34.8947 42.1323C36.0125 42.5048 36.5715 42.691 37.1205 42.708C37.7808 42.7282 38.4345 42.574 39.0157 42.2605C39.4992 41.9998 39.916 41.5832 40.749 40.7502C41.582 39.9172 41.9985 39.5005 42.2593 39.017C42.5728 38.4358 42.727 37.7818 42.7067 37.1218C42.6897 36.5728 42.5035 36.0137 42.131 34.896L41.5935 33.2835C41.1193 31.861 41.836 30.3155 43.2283 29.7588C44.59 29.214 45.271 28.9415 45.772 28.4865C46.2145 28.0842 46.5545 27.5822 46.7635 27.022C47 26.3877 47 25.6472 47 24.1657C47 22.9145 47 22.289 46.8222 21.7325C46.665 21.24 46.4075 20.7852 46.0662 20.397C45.6802 19.9582 45.1493 19.6395 44.087 19.0022L43.3923 18.5854C41.8695 17.6717 41.2347 15.7878 41.8945 14.1389C42.3155 13.0861 42.5263 12.5596 42.58 12.0386C42.659 11.2731 42.5008 10.5019 42.1265 9.82953C41.8718 9.37188 41.471 8.97092 40.669 8.16905C39.9145 7.4146 39.5372 7.03735 39.1065 6.78958C38.4735 6.4256 37.748 6.25435 37.019 6.2968C36.5228 6.32572 36.0167 6.49443 35.0045 6.83183L33.5785 7.30717C31.9903 7.8366 30.2645 7.03625 29.6428 5.4818C29.2103 4.4004 28.994 3.8597 28.6635 3.43777C28.1797 2.8202 27.5145 2.36985 26.7615 2.15013Z" stroke="#252525" stroke-width="4" stroke-linecap="round" stroke-linejoin="round"/>
</svg>
