<svg width="49" height="39" viewBox="0 0 49 39" fill="none" xmlns="http://www.w3.org/2000/svg">
<path d="M2 27H47M2 37H32M2 7H22M2 17H22M43 17H36C34.5998 17 33.8997 17 33.365 16.7275C32.8945 16.4877 32.5123 16.1055 32.2725 15.635C32 15.1003 32 14.4001 32 13V6C32 4.59987 32 3.8998 32.2725 3.36503C32.5123 2.89463 32.8945 2.51218 33.365 2.27248C33.8997 2 34.5998 2 36 2H43C44.4002 2 45.1003 2 45.635 2.27248C46.1055 2.51218 46.4878 2.89463 46.7275 3.36503C47 3.8998 47 4.59987 47 6V13C47 14.4001 47 15.1003 46.7275 15.635C46.4878 16.1055 46.1055 16.4877 45.635 16.7275C45.1003 17 44.4002 17 43 17Z" stroke="#303030" stroke-width="4" stroke-linecap="round" stroke-linejoin="round"/>
</svg>
