<svg width="45" height="45" viewBox="0 0 45 45" fill="none" xmlns="http://www.w3.org/2000/svg">
<path d="M22.5 0C34.9264 0 45 10.0736 45 22.5C45 34.9264 34.9264 45 22.5 45C10.0736 45 0 34.9264 0 22.5C0 10.0736 10.0736 0 22.5 0ZM24.6396 7.04492C22.2561 6.80542 19.8727 7.52461 18.085 9.08203C16.4163 10.7595 15.3428 13.0362 15.3428 15.4326C15.3428 17.5893 16.1772 19.5068 17.4883 21.0645C16.6541 21.304 15.8195 21.3034 14.9854 21.1836C13.0785 20.8241 11.2906 19.9852 9.74121 18.7871L8.78809 18.0684C8.43054 17.8287 7.95327 17.7087 7.5957 17.9482C7.23813 18.1879 7 18.5481 7 19.0273V28.8525C8.31113 33.8848 11.7677 37 16.5352 37H24.6396C29.0496 37 32.7449 33.7649 33.2217 29.5713C33.5792 26.3362 32.0294 23.3403 29.4072 21.543C29.884 21.0637 30.242 20.7046 30.5996 20.1055C32.8642 19.8658 34.8901 18.6674 36.3203 16.8701L37.751 14.9531C37.9893 14.5937 38.1085 14.1143 37.8701 13.7549C37.6317 13.2757 37.2736 13.0361 36.7969 13.0361H31.6719C30.7183 9.92088 27.9769 7.52419 24.6396 7.04492ZM21.4219 23.7002C24.044 23.7002 26.1895 25.8571 26.1895 28.4932C26.1893 31.129 23.9248 33.4053 21.3027 33.4053C15.7008 33.4053 14.2705 29.2113 14.2705 28.9717C14.1515 28.4926 14.2706 28.0136 14.6279 27.6543C15.3431 27.0552 19.0381 23.7002 21.4219 23.7002ZM26.0703 11.8379C26.7854 11.8379 27.2617 12.3172 27.2617 13.0361V16.6309C27.2617 17.3497 26.7854 17.8291 26.0703 17.8291C25.3552 17.8291 24.878 17.3497 24.8779 16.6309V13.0361C24.8779 12.3172 25.3552 11.8379 26.0703 11.8379Z" fill="#252525"/>
</svg>
