<svg width="45" height="45" viewBox="0 0 45 45" fill="none" xmlns="http://www.w3.org/2000/svg">
<path d="M22.5 0C34.9264 0 45 10.0736 45 22.5C45 34.9264 34.9264 45 22.5 45C10.0736 45 0 34.9264 0 22.5C0 10.0736 10.0736 0 22.5 0ZM19.0938 8C16.1431 8 13.6213 9.80238 12.5977 12.3486C10.5941 12.7486 10.1327 11.9432 9.73438 11.0137C9.3042 10.0106 8.20538 10.297 8.01465 11.5869C7.88059 12.4929 8.64393 14.9469 10.5938 15.7188C10.0416 15.9814 9.57591 16.3448 9.16113 16.8184C8.60437 17.4557 9.31689 18.5292 10.1074 18.2578C10.8535 18.0018 12.0077 17.9057 12.7686 17.8848C13.1092 18.6527 13.5353 19.3143 13.9385 19.8516C14.3691 20.4257 13.7441 20.8431 12.4189 23.0049C10.6038 25.9667 10.3174 29.8837 12.5947 32.7207C15.3192 36.1154 20.7636 36.1611 26.7822 36.1611C35.1022 36.161 37.2533 27.6013 37.8252 24.1221C38.5585 19.6606 36.9339 19.6609 33.9551 21.7578C32.4517 22.8155 22.462 24.89 25.6855 17.3672C25.9185 16.6821 26.0801 15.6409 26.0801 14.8789C26.08 11.0799 22.9521 8.00009 19.0938 8ZM16.9717 12.5186C17.6051 12.5186 18.1182 13.0321 18.1182 13.665C18.1181 14.2984 17.6051 14.8115 16.9717 14.8115C16.3389 14.8114 15.8262 14.2984 15.8262 13.665C15.8262 13.0322 16.3389 12.5187 16.9717 12.5186Z" fill="#252525"/>
</svg>
