<svg width="45" height="45" viewBox="0 0 45 45" fill="none" xmlns="http://www.w3.org/2000/svg">
<path d="M44.3515 20.9084L24.0978 0.665318C23.8886 0.454501 23.6397 0.287172 23.3655 0.172981C23.0912 0.0587909 22.7971 0 22.5 0C22.2029 0 21.9088 0.0587909 21.6345 0.172981C21.3603 0.287172 21.1114 0.454501 20.9022 0.665318L0.648537 20.9084C0.336276 21.2247 0.124746 21.6263 0.0406387 22.0626C-0.0434684 22.499 0.00361617 22.9504 0.175951 23.36C0.344777 23.7708 0.631474 24.1224 0.999912 24.3706C1.36835 24.6187 1.80204 24.7523 2.24633 24.7546H4.49673V41.1739C4.53776 42.226 4.99412 43.219 5.76594 43.9356C6.53775 44.6523 7.56216 45.0341 8.61498 44.9976H14.6236C15.2204 44.9976 15.7928 44.7606 16.2149 44.3388C16.6369 43.917 16.874 43.3449 16.874 42.7484V31.7272C16.874 31.1306 17.1111 30.5585 17.5331 30.1367C17.9551 29.7149 18.5275 29.4779 19.1244 29.4779H25.8756C26.4725 29.4779 27.0449 29.7149 27.4669 30.1367C27.8889 30.5585 28.126 31.1306 28.126 31.7272V42.7484C28.126 43.3449 28.3631 43.917 28.7851 44.3388C29.2072 44.7606 29.7796 44.9976 30.3764 44.9976H36.385C37.4378 45.0341 38.4622 44.6523 39.2341 43.9356C40.0059 43.219 40.4622 42.226 40.5033 41.1739V24.7546H42.7537C43.198 24.7523 43.6317 24.6187 44.0001 24.3706C44.3685 24.1224 44.6552 23.7708 44.824 23.36C44.9964 22.9504 45.0435 22.499 44.9594 22.0626C44.8753 21.6263 44.6637 21.2247 44.3515 20.9084Z" fill="#252525"/>
</svg>
