<svg width="45" height="45" viewBox="0 0 45 45" fill="none" xmlns="http://www.w3.org/2000/svg">
<path d="M41.399 0.00403569H3.85304C3.3691 -0.018631 2.88542 0.0543474 2.42972 0.218835C1.97402 0.383324 1.55525 0.636059 1.19734 0.96256C0.839456 1.28909 0.549466 1.683 0.344018 2.12171C0.138569 2.56045 0.0216558 3.03538 0 3.51934V41.1472C0.0283493 42.1599 0.443408 43.1237 1.15993 43.8399C1.87646 44.5565 2.84011 44.9716 3.85304 45H41.399C42.3837 44.9561 43.3121 44.5281 43.9851 43.8079C44.6581 43.0877 45.022 42.1326 44.999 41.1472V3.51934C45.0071 3.04829 44.9188 2.58058 44.7397 2.14486C44.5605 1.70915 44.2942 1.31462 43.957 0.985452C43.62 0.656307 43.2193 0.399494 42.7794 0.230731C42.3395 0.0619687 41.8699 -0.0151719 41.399 0.00403569ZM14.0622 37.5194H7.5092V17.4681H14.0622V37.5194ZM10.9404 14.4308C10.4831 14.4468 10.0275 14.368 9.6021 14.1994C9.17672 14.0309 8.7908 13.7762 8.46861 13.4513C8.14639 13.1265 7.89482 12.7385 7.72973 12.3118C7.56461 11.8851 7.48954 11.4289 7.5092 10.9718C7.48898 10.5097 7.56556 10.0486 7.73406 9.61788C7.90255 9.18716 8.15921 8.79643 8.48756 8.47074C8.81594 8.14503 9.20876 7.89156 9.64083 7.72659C10.0729 7.5616 10.5347 7.48876 10.9966 7.51272C11.4539 7.49681 11.9095 7.57558 12.3349 7.74414C12.7603 7.91271 13.1462 8.16741 13.4684 8.49226C13.7906 8.8171 14.0422 9.20505 14.2073 9.63175C14.3724 10.0584 14.4475 10.5147 14.4278 10.9718C14.448 11.4338 14.3714 11.895 14.2029 12.3257C14.0344 12.7564 13.7778 13.1471 13.4494 13.4728C13.1211 13.7985 12.7282 14.052 12.2962 14.217C11.8641 14.382 11.4023 14.4548 10.9404 14.4308ZM37.5179 37.5194H30.9368V26.5517C30.9368 23.9363 30.0087 22.1365 27.6744 22.1365C26.9493 22.1427 26.2437 22.373 25.6548 22.7959C25.0655 23.2189 24.6217 23.8137 24.3838 24.4988C24.201 25.0123 24.1245 25.5576 24.1588 26.1017V37.5194H17.6902V17.4681H24.1588V20.2804C24.734 19.2238 25.5898 18.347 26.6321 17.7463C27.6744 17.1459 28.8623 16.8452 30.0649 16.8775C34.3117 16.8775 37.5179 19.6898 37.5179 25.6799V37.5194Z" fill="#252525"/>
</svg>
