<svg width="49" height="44" viewBox="0 0 49 44" fill="none" xmlns="http://www.w3.org/2000/svg">
<path d="M29.4997 19.4998L34.4996 24.4998L29.4997 29.4997M19.4998 29.4997L14.4999 24.4998L19.4998 19.4998M2 6.99994V33.9996C2 36.7999 2 38.1991 2.54497 39.2686C3.02431 40.2093 3.78866 40.9758 4.72947 41.4551C5.79796 41.9996 7.19742 41.9996 9.99219 41.9996H39.0073C41.8021 41.9996 43.1995 41.9996 44.268 41.4551C45.2088 40.9758 45.9758 40.2098 46.455 39.2691C47 38.1996 47 36.7994 47 33.9991V14.9993C47 12.1991 47 10.799 46.455 9.72942C45.9758 8.7886 45.2093 8.02426 44.2685 7.54491C43.199 6.99994 41.7998 6.99994 38.9996 6.99994H24.4997M2 6.99994H24.4997M2 6.99994C2 4.23855 4.23855 2 6.99994 2H16.1861C17.4091 2 18.022 2 18.5974 2.13815C19.1076 2.26062 19.5946 2.46314 20.0418 2.73729C20.5463 3.04641 20.9793 3.47953 21.8435 4.34372L24.4997 6.99994" stroke="#252525" stroke-width="4" stroke-linecap="round" stroke-linejoin="round"/>
</svg>
