<svg width="41" height="40" viewBox="0 0 41 40" fill="none" xmlns="http://www.w3.org/2000/svg">
<path d="M39.907 18.2166L22.4424 0.753525C21.9756 0.288073 21.3314 0 20.6193 0C19.9071 0 19.2629 0.288073 18.7961 0.753525L15.1778 4.37845L19.7777 8.97828C20.0711 8.87559 20.4085 8.81691 20.7606 8.81691C22.4531 8.81691 23.8241 10.1879 23.8241 11.8804C23.8241 12.2391 23.7627 12.5819 23.6494 12.9019L23.656 12.8806L28.0865 17.3137C28.3826 17.2084 28.7254 17.147 29.0815 17.147C30.7726 17.147 32.1436 18.518 32.1436 20.2091C32.1436 21.9002 30.7726 23.2712 29.0815 23.2712C27.3904 23.2712 26.0193 21.9002 26.0193 20.2091C26.0193 19.7917 26.1034 19.3943 26.2541 19.0315L26.2461 19.0515L22.0983 14.9251V25.7999C23.1172 26.3134 23.8041 27.3509 23.8041 28.5486C23.8041 30.2424 22.4304 31.616 20.7366 31.616C19.0428 31.616 17.6691 30.2424 17.6691 28.5486C17.6691 27.703 18.0106 26.9388 18.564 26.384C18.8455 26.1026 19.1802 25.8746 19.5523 25.7145L19.5723 25.7065V14.7251C18.4493 14.253 17.6758 13.1607 17.6758 11.8897C17.6758 11.4629 17.7625 11.0575 17.9199 10.688L17.9119 10.7081L13.392 6.1669L1.41555 18.1353C0.951424 18.6034 0.666016 19.2476 0.666016 19.9597C0.666016 20.6719 0.952757 21.3161 1.41688 21.7842L18.8828 39.2446C19.3482 39.7114 19.9924 39.9995 20.7046 39.9995C21.4168 39.9995 22.0596 39.7114 22.5264 39.2446L39.9096 21.8616C40.3764 21.3961 40.6658 20.7506 40.6658 20.0398C40.6658 19.3289 40.3764 18.6834 39.9096 18.218L39.907 18.2166Z" fill="#181818"/>
</svg>
