<svg width="40" height="40" viewBox="0 0 40 40" fill="none" xmlns="http://www.w3.org/2000/svg">
<path fill-rule="evenodd" clip-rule="evenodd" d="M30.6559 36.8638C27.1659 36.8638 24.9099 35.2 23.8099 33.024L26.8699 31.2516C27.6759 32.5675 28.7219 33.5338 30.5759 33.5338C32.1319 33.5338 33.1258 32.7552 33.1258 31.6812C33.1258 30.0653 30.9699 29.4339 29.4479 28.7819C26.7359 27.6279 24.9359 26.1779 24.9359 23.1159C24.9359 20.298 27.0839 18.1502 30.4419 18.1502C32.8299 18.1502 34.5498 18.982 35.7838 21.156L32.8578 23.0358C32.2138 21.8819 31.5159 21.4255 30.4419 21.4255C29.3399 21.4255 28.6419 22.1239 28.6419 23.0358C28.6419 24.1638 29.3399 24.62 30.9519 25.318C34.3299 26.766 36.8858 27.9036 36.8858 31.6275C36.8858 35.0115 34.2279 36.8638 30.6559 36.8638ZM21.9999 31.1978C21.9999 35.0918 19.6019 37.1499 16.2719 37.1499C13.2639 37.1499 11.4619 35.9995 10.5759 33.9996H10.546H10.5319H10.5239L13.5819 31.8619C14.1719 32.9079 14.7039 33.65 15.9919 33.65C17.2279 33.65 17.9999 33.0241 17.9999 31.1461V17.9998H21.9999V31.1978ZM0 39.9995H39.9998V0H0V39.9995Z" fill="#181818"/>
</svg>
