<svg width="349" height="141" viewBox="0 0 349 141" fill="none" xmlns="http://www.w3.org/2000/svg">
<path d="M110.339 37.4225C110.339 34.6865 110.339 22.9026 118.877 22.9026C125.996 22.9026 126.888 31.9505 126.888 36.4803C126.888 43.5507 125.464 51.6564 118.433 51.6564C110.779 51.6564 110.339 41.1869 110.339 37.4225ZM93.6086 13.95C93.697 15.9299 93.7878 16.4952 93.9622 21.6811V71.6321H110.695V55.6115C112.225 57.7252 114.25 59.4317 116.592 60.582C118.934 61.7322 121.522 62.291 124.131 62.2096C134.277 62.2096 144.064 55.0485 144.064 36.6664C144.064 17.2467 132.318 12.7216 124.845 12.7216C121.912 12.5942 118.999 13.2621 116.414 14.6545C113.829 16.047 111.669 18.1123 110.162 20.6318L109.983 13.9383H93.6109L93.6086 13.95ZM55.0856 37.5179C55.0856 30.4475 56.5095 22.4372 63.8963 22.4372C70.5688 22.4372 72.4394 29.3215 72.4394 37.5179C72.4394 44.116 71.0155 52.5079 63.7171 52.5079C62.3844 52.5841 61.0587 52.2673 59.9043 51.5969C58.75 50.9265 57.8179 49.9319 57.2237 48.7365C55.6513 45.2132 54.9193 41.3726 55.0856 37.5179ZM37.7366 37.4225C37.4059 44.0317 39.7092 50.5024 44.1416 55.4161C48.5015 59.8365 54.9065 62.3957 64.785 62.3957C73.9516 62.3957 79.4679 59.4736 83.2043 55.6069C87.6621 50.3994 89.9821 43.6968 89.6977 36.8479C89.6977 20.0688 78.3976 12.3377 63.8916 12.3377C46.1843 12.3377 37.7343 22.9025 37.7343 37.4179M24.8266 14.1408V0L8.72222 6.79119V14.1454H0V25.4594H8.45467V48.1759C8.45467 57.3192 11.1232 62.0351 24.4706 62.0351C28.1085 62.0938 31.7438 61.8102 35.3286 61.1882V50.065C33.9434 50.2793 32.5423 50.3743 31.1408 50.3488C24.7358 50.3488 24.7358 47.7082 24.6474 41.8616V25.4571H35.417V14.1431L24.8266 14.1408Z" fill="#DCD7BA"/>
<path d="M212.724 122.097H230.438V102.017C230.438 96.9261 231.955 89.2904 242.845 89.2904C244.113 89.3204 245.378 89.4151 246.635 89.5742V74.3981C242.564 74.3074 233.942 74.0212 229.87 84.5791L229.584 74.7774H212.251L212.717 84.863V122.088L212.724 122.097ZM187.716 99.7622C187.953 102.778 187.5 105.809 186.392 108.624C185.79 109.978 184.807 111.127 183.562 111.93C182.317 112.734 180.866 113.158 179.384 113.149C178.521 113.209 177.656 113.085 176.844 112.786C176.033 112.487 175.294 112.019 174.676 111.413C174.059 110.808 173.577 110.078 173.263 109.272C172.948 108.467 172.808 107.603 172.851 106.74C172.851 99.9506 180.143 99.8552 187.718 99.7599M205.339 122.095C204.666 119.127 204.347 116.09 204.39 113.047V90.9911C204.571 88.7433 204.295 86.4821 203.579 84.3437C202.863 82.2053 201.721 80.2341 200.223 78.5487C195.207 73.6443 186.11 73.0813 181.843 73.0813C173.221 73.0813 165.834 75.2473 162.14 79.0187C160.894 80.3383 159.925 81.8941 159.29 83.5943C158.655 85.2946 158.367 87.1048 158.443 88.9181H175.492C175.399 83.5438 178.516 81.7524 181.841 81.7524C187.241 81.7524 187.904 86.4636 187.806 91.5541C167.344 90.7073 155.316 95.4208 155.316 108.333C155.316 116.725 160.435 123.039 172.081 123.039C181.841 123.039 185.533 118.514 187.711 115.308C187.653 117.585 187.844 119.862 188.281 122.097H205.335L205.339 122.095ZM119.162 122.095H136.876V102.014C136.876 96.9238 138.388 89.2881 149.286 89.2881C150.553 89.3182 151.818 89.4129 153.076 89.5719V74.3958C149.004 74.3051 140.38 74.0189 136.311 84.5768L136.024 74.775H118.692L119.157 84.8606V122.085L119.162 122.095ZM93.1043 96.7353C93.1043 100.127 92.8181 110.122 84.2936 110.122C76.4322 110.122 75.2946 101.924 75.2946 96.9261C75.2946 89.0159 78.5122 83.5392 84.4821 83.5392C93.1043 83.5392 93.1043 94.2855 93.1043 96.7353ZM93.9604 74.4889V81.6546C91.592 77.8833 87.4275 73.6397 78.2353 73.6397C63.7432 73.6397 56.9218 84.2906 56.9218 97.1122C56.9218 114.364 68.0055 120.585 78.0469 120.585C81.0375 120.68 84.0053 120.033 86.6848 118.702C89.3644 117.37 91.6722 115.395 93.4021 112.954V119.173C93.4021 124.263 92.8321 130.675 83.9284 130.675C78.81 130.675 76.2508 128.225 76.16 124.642H59.3856C59.2911 126.614 59.6326 128.583 60.3858 130.408C61.139 132.233 62.2854 133.869 63.7432 135.2C69.1432 140.007 78.1422 140.761 83.5398 140.761C93.295 140.761 99.0765 138.402 103.148 135.479C109.588 130.954 110.723 124.261 110.723 118.607V74.4935L93.9604 74.4889ZM32.8676 99.7552C33.105 102.771 32.6523 105.802 31.5438 108.617C30.9411 109.971 29.957 111.12 28.7116 111.924C27.4663 112.728 26.0137 113.151 24.5316 113.142C23.6686 113.202 22.8027 113.078 21.9909 112.779C21.1792 112.48 20.4401 112.012 19.8223 111.407C19.2046 110.801 18.7223 110.071 18.4071 109.266C18.092 108.46 17.9512 107.597 17.994 106.733C17.994 99.9436 25.2877 99.8506 32.8676 99.7552ZM50.4889 122.088C49.8157 119.12 49.4971 116.083 49.5397 113.04V90.9841C49.7199 88.7364 49.4436 86.4754 48.7275 84.3372C48.0115 82.1989 46.8704 80.2276 45.3728 78.5417C40.3521 73.6374 31.26 73.0743 26.9931 73.0743C18.3709 73.0743 10.9841 75.2403 7.28958 79.0117C6.04339 80.331 5.07451 81.8869 4.44031 83.5873C3.80611 85.2877 3.51947 87.098 3.59735 88.9112H20.6463C20.5532 83.5368 23.6708 81.7454 26.9908 81.7454C32.3907 81.7454 33.0538 86.4566 32.956 91.5471C12.4941 90.7003 0.46582 95.4139 0.46582 108.326C0.46582 116.718 5.58422 123.032 17.2332 123.032C26.9885 123.032 30.683 118.507 32.863 115.301C32.8028 117.578 32.994 119.855 33.433 122.09H50.4866L50.4889 122.088Z" fill="#DCD7BA"/>
<path d="M315.433 98.027C315.433 115.825 309.536 121.181 298.105 121.181C292.704 121.363 287.383 119.839 282.897 116.825C283.174 120.026 283.266 123.239 283.171 126.45V137.257H269.621V75.2338H280.679L281.694 81.7737C284.027 79.3316 286.831 77.3883 289.936 76.0615C293.042 74.7346 296.385 74.0517 299.762 74.0542C311.011 74.0426 315.433 82.8625 315.433 98.027ZM301.423 98.027C301.423 87.2201 299.396 84.5865 294.325 84.5865C290.369 84.5865 287.319 86.129 283.169 88.8534V109.378C286.513 110.444 289.985 111.054 293.492 111.193C299.306 111.193 301.423 109.197 301.423 98.027Z" fill="#DCD7BA"/>
<path d="M338.569 105.381C338.569 108.471 340.321 109.92 343.729 109.92H347.414L348.98 119.275C345.487 120.504 341.807 121.119 338.104 121.092C330.086 121.092 325.014 116.642 325.014 108.743V56.4353H338.564V105.381H338.569Z" fill="#DCD7BA"/>
<path d="M251.229 123.458C257.339 123.458 262.292 118.579 262.292 112.561C262.292 106.542 257.339 101.663 251.229 101.663C245.12 101.663 240.167 106.542 240.167 112.561C240.167 118.579 245.12 123.458 251.229 123.458Z" fill="#DCD7BA"/>
</svg>
