<svg width="35" height="40" viewBox="0 0 35 40" fill="none" xmlns="http://www.w3.org/2000/svg">
<path d="M15.9893 0.366791C16.8057 -0.122009 18.1425 -0.122009 18.959 0.366791L33.1328 8.85019C33.5408 9.09459 33.9117 9.51658 34.1807 9.9996C34.4498 10.4827 34.6172 11.0274 34.6172 11.5162V28.483C34.6172 28.9717 34.4505 29.5166 34.1816 29.9996C33.9127 30.4827 33.5411 30.9046 33.1328 31.149L18.959 39.6334C18.1426 40.122 16.8066 40.122 15.9902 39.6334L1.81641 31.149C1.4593 30.9353 1.12989 30.586 0.873047 30.1783L0.767578 29.9996C0.498452 29.5165 0.33106 28.9717 0.331055 28.483V11.5162C0.331055 10.5389 0.998943 9.33896 1.81543 8.85019L15.9893 0.366791ZM17.5293 8.57089C11.1975 8.57103 6.04609 13.6981 6.0459 19.9996C6.04598 26.3012 11.1974 31.4282 17.5293 31.4283C21.5409 31.4281 25.2881 29.3184 27.3613 25.9078L22.4326 22.9752C21.3918 24.6678 19.5258 25.7133 17.5293 25.7135C14.3633 25.7133 11.7882 23.1503 11.7881 19.9996C11.7883 16.849 14.3634 14.2849 17.5293 14.2848C19.5311 14.2849 21.4025 15.3371 22.4414 17.0377L27.3594 14.0875C25.2857 10.6789 21.5396 8.57106 17.5293 8.57089ZM30.332 17.857V19.2848H28.9033V20.7135H30.332V22.1422H31.7598V20.7135H33.1895V19.2848H31.7598V17.857H30.332ZM24.6172 17.857V19.2779H23.1885V20.6988H24.6172V22.1197H26.0459V20.6988H27.4746V19.2779H26.0459V17.857H24.6172Z" fill="#181818"/>
</svg>
