<svg width="67" height="50" viewBox="0 0 67 50" fill="none" xmlns="http://www.w3.org/2000/svg">
<path d="M51.6819 10.5666L52.31 9.6208L53.4071 10.2833L53.8929 10.6291C55.0654 11.5291 57.5319 13.8291 58.0637 17.6458C58.9975 17.4791 59.9397 17.3958 60.8819 17.3958C63.1181 17.3958 64.6215 17.9124 65.4757 18.3416L65.9154 18.5791L66.2002 18.7666L67 19.4166L66.7236 20.2499C66.294 21.3923 65.6228 22.4296 64.7555 23.2916C63.5411 24.5374 61.4054 26.0082 58.0176 26.1999L57.2723 26.2207H56.6525C55.1031 30.2915 53.0219 34.879 49.5252 38.9957C47.4505 41.4419 44.9896 43.536 42.2389 45.1957C38.9411 47.1424 35.3299 48.5069 31.5647 49.229C28.8679 49.7498 26.1293 50.0081 23.3864 49.9998C17.3144 49.9998 11.9543 48.7998 8.65872 46.6998C5.71485 44.829 3.45356 41.7748 1.93347 37.629C0.603191 33.8407 -0.0501652 29.8499 0.00300232 25.8374C-0.00388768 25.3229 0.174863 24.8231 0.506798 24.4286C0.838732 24.0341 1.30184 23.7711 1.81203 23.6874L2.09679 23.6666H46.2338L46.6191 23.6374L47.243 23.5707C48.315 23.4291 49.9482 23.1124 51.0956 22.4457C49.7221 20.1833 49.3326 17.5374 49.9733 14.7208C50.2417 13.5459 50.664 12.4112 51.2296 11.3458L51.6819 10.5666ZM12.1009 15.7666L12.2684 15.7958C12.3449 15.8243 12.4138 15.8699 12.4697 15.9291C12.5256 15.9884 12.5671 16.0597 12.5908 16.1374L12.616 16.3041V21.7832L12.5908 21.9541C12.5667 22.0323 12.5246 22.1038 12.4679 22.1631C12.4112 22.2224 12.3415 22.2678 12.2642 22.2957L12.1009 22.3207H6.18805C6.07785 22.3193 5.97097 22.283 5.88289 22.217C5.79481 22.1511 5.73009 22.059 5.6981 21.9541L5.66879 21.7874V16.2999L5.6981 16.1333C5.72173 16.0543 5.76356 15.9819 5.82027 15.9219C5.87698 15.8618 5.94699 15.8158 6.02473 15.7874L6.18805 15.7624L12.1009 15.7666ZM20.2541 15.7666L20.4174 15.7958C20.4947 15.8237 20.5644 15.8691 20.6211 15.9284C20.6778 15.9877 20.7199 16.0592 20.7441 16.1374L20.7692 16.3041V21.7832L20.7399 21.9541C20.7157 22.0323 20.6736 22.1038 20.6169 22.1631C20.5602 22.2224 20.4905 22.2678 20.4132 22.2957L20.2499 22.3207H14.3371C14.227 22.3186 14.1205 22.2821 14.0325 22.2162C13.9445 22.1504 13.8797 22.0587 13.8471 21.9541L13.8178 21.7916V16.3041C13.8169 16.1926 13.8506 16.0836 13.9143 15.9918C13.978 15.9001 14.0686 15.8302 14.1738 15.7916L14.3371 15.7624L20.2541 15.7666ZM28.5288 15.7666L28.6921 15.7958C28.7686 15.8243 28.8375 15.8699 28.8934 15.9291C28.9493 15.9884 28.9907 16.0597 29.0145 16.1374L29.0438 16.3041V21.7832L29.0145 21.9541C28.9903 22.0323 28.9482 22.1038 28.8916 22.1631C28.8349 22.2224 28.7652 22.2678 28.6879 22.2957L28.5246 22.3207H22.6117C22.5015 22.3193 22.3946 22.283 22.3066 22.217C22.2185 22.1511 22.1538 22.059 22.1218 21.9541L22.0966 21.7874V16.2999L22.1218 16.1333C22.1454 16.0543 22.1872 15.9819 22.2439 15.9219C22.3006 15.8618 22.3707 15.8158 22.4484 15.7874L22.6117 15.7624L28.5288 15.7666ZM36.7029 15.7666L36.8662 15.7958C36.9435 15.8237 37.0132 15.8691 37.0699 15.9284C37.1266 15.9877 37.1687 16.0592 37.1928 16.1374L37.2222 16.3041V21.7832C37.2231 21.8947 37.1893 22.0038 37.1256 22.0955C37.0619 22.1872 36.9713 22.2572 36.8662 22.2957L36.6987 22.3207H30.79C30.6798 22.3193 30.573 22.283 30.4849 22.217C30.3968 22.1511 30.3321 22.059 30.3001 21.9541L30.275 21.7874V16.2999L30.3001 16.1333C30.3237 16.0543 30.3656 15.9819 30.4223 15.9219C30.479 15.8618 30.549 15.8158 30.6267 15.7874L30.7942 15.7624H36.7071L36.7029 15.7666ZM44.9524 15.7666L45.1157 15.7958C45.193 15.8237 45.2627 15.8691 45.3194 15.9284C45.3761 15.9877 45.4182 16.0592 45.4424 16.1374L45.4675 16.3041V21.7832C45.4684 21.8947 45.4347 22.0038 45.371 22.0955C45.3073 22.1872 45.2167 22.2572 45.1115 22.2957L44.9482 22.3207H39.0354C38.9252 22.3193 38.8183 22.283 38.7302 22.217C38.6421 22.1511 38.5774 22.059 38.5454 21.9541L38.5203 21.7874V16.2999L38.5454 16.1333C38.5691 16.0543 38.6109 15.9819 38.6676 15.9219C38.7243 15.8618 38.7943 15.8158 38.8721 15.7874L39.0396 15.7624H44.9482L44.9524 15.7666ZM20.2457 7.8833L20.4132 7.91247C20.4893 7.94053 20.5579 7.98553 20.6138 8.04403C20.6697 8.10253 20.7114 8.17297 20.7357 8.24997L20.765 8.4208V13.8999C20.7659 14.0114 20.7322 14.1205 20.6685 14.2122C20.6048 14.3039 20.5142 14.3739 20.409 14.4124L20.2457 14.4416H14.3371C14.226 14.4389 14.1186 14.4012 14.0305 14.3338C13.9424 14.2663 13.8782 14.1728 13.8471 14.0666L13.8178 13.8999V8.4208C13.8178 8.31002 13.8519 8.20189 13.9155 8.111C13.9792 8.02011 14.0693 7.95082 14.1738 7.91247L14.3371 7.8833H20.2457ZM28.5204 7.8833L28.6879 7.91247C28.7639 7.94053 28.8325 7.98553 28.8884 8.04403C28.9443 8.10253 28.986 8.17297 29.0103 8.24997L29.0396 8.4208V13.8999C29.0405 14.0114 29.0068 14.1205 28.9431 14.2122C28.8794 14.3039 28.7888 14.3739 28.6837 14.4124L28.5204 14.4416H22.6117C22.5006 14.4389 22.3933 14.4012 22.3052 14.3338C22.2171 14.2663 22.1529 14.1728 22.1218 14.0666L22.0966 13.8999V8.4208L22.1218 8.25413C22.146 8.17593 22.188 8.10438 22.2447 8.0451C22.3014 7.98582 22.3711 7.94042 22.4484 7.91247L22.6117 7.8833H28.5204ZM36.6987 7.8833C36.9248 7.8833 37.1175 8.03747 37.1887 8.24997L37.218 8.4208V13.8999C37.2189 14.0114 37.1852 14.1205 37.1215 14.2122C37.0578 14.3039 36.9672 14.3739 36.862 14.4124L36.6945 14.4416H30.79C30.6789 14.4389 30.5716 14.4012 30.4835 14.3338C30.3954 14.2663 30.3312 14.1728 30.3001 14.0666L30.275 13.8999V8.4208L30.3001 8.25413C30.3243 8.17593 30.3664 8.10438 30.4231 8.0451C30.4797 7.98582 30.5494 7.94042 30.6267 7.91247L30.7942 7.8833H36.7071H36.6987ZM36.6987 0C36.9248 0 37.1175 0.154166 37.1887 0.366665L37.218 0.533331V6.01664C37.2189 6.12813 37.1852 6.23718 37.1215 6.3289C37.0578 6.42062 36.9672 6.49055 36.862 6.52914L36.6945 6.55414H30.79C30.6798 6.55267 30.573 6.51635 30.4849 6.45043C30.3968 6.38451 30.3321 6.29242 30.3001 6.18748L30.275 6.02081V0.533331L30.3001 0.366665C30.3243 0.288466 30.3664 0.216913 30.4231 0.15763C30.4797 0.0983465 30.5494 0.0529478 30.6267 0.0250001L30.79 0H36.7029H36.6987Z" fill="#DCD7BA"/>
</svg>
