<svg width="50" height="50" viewBox="0 0 50 50" fill="none" xmlns="http://www.w3.org/2000/svg">
<path d="M48.3885 5.76923H30.7693V11.5077H36.5981V15.4135H30.7693V19.2308H36.5385V23.0769H30.7693V26.9231H36.5385V30.7692H30.7693V34.6154H36.5385V38.4615H30.7693V44.2308H48.3885C49.2751 44.2308 50.0001 43.4788 50.0001 42.5577V7.4423C50.0001 6.52115 49.2751 5.76923 48.3885 5.76923ZM46.1539 38.4615H38.4616V34.6154H46.1539V38.4615ZM46.1539 30.7692H38.4616V26.9231H46.1539V30.7692ZM46.1539 23.0769H38.4616V19.2308H46.1539V23.0769ZM46.1539 15.3846H38.4616V11.5385H46.1539V15.3846Z" fill="#F0F0F0"/>
<path d="M0 5.55577V44.4462L28.8462 50V0L0 5.55577ZM18.2462 34.7692L14.8904 28.425C14.7635 28.1885 14.6327 27.7538 14.4962 27.1212H14.4442C14.3808 27.4192 14.2308 27.8731 13.9942 28.4808L10.6269 34.7692H5.39808L11.6058 25.0308L5.92692 15.2904H11.2654L14.05 21.1308C14.2673 21.5923 14.4615 22.1404 14.6346 22.7731H14.6885C14.7981 22.3923 15.0019 21.8269 15.3 21.075L18.3962 15.2885H23.2846L17.4442 24.9462L23.4481 34.7673L18.2462 34.7692Z" fill="#F0F0F0"/>
</svg>
