<svg width="46" height="50" viewBox="0 0 46 50" fill="none" xmlns="http://www.w3.org/2000/svg">
<path d="M44.0676 11.1161L25.1984 0.431067C24.5938 0.147178 23.934 0 23.266 0C22.598 0 21.9383 0.147178 21.3336 0.431067L2.46437 11.1161C1.88422 11.4509 1.40106 11.9309 1.06229 12.5088C0.723525 13.0867 0.540781 13.7427 0.531982 14.4125V35.5551C0.540781 36.225 0.723525 36.881 1.06229 37.4589C1.40106 38.0368 1.88422 38.5167 2.46437 38.8516L7.46586 41.6933C8.77244 42.4654 10.268 42.8589 11.7853 42.83C15.3091 42.83 17.3552 40.6703 17.3552 37.0328V16.2312C17.3552 16.0805 17.2953 15.9359 17.1887 15.8293C17.0821 15.7227 16.9375 15.6629 16.7868 15.6629H14.3997C14.249 15.6629 14.1044 15.7227 13.9979 15.8293C13.8913 15.9359 13.8314 16.0805 13.8314 16.2312V37.0328C13.8314 38.7379 12.1263 40.3293 9.39825 38.9652L4.16943 36.0098C4.09884 35.9569 4.04155 35.8882 4.00209 35.8093C3.96263 35.7304 3.94209 35.6434 3.94209 35.5551V14.4125C3.94991 14.2025 4.03024 14.0016 4.16943 13.8441L22.925 3.27282H23.607L42.3626 13.8441C42.5018 14.0016 42.5821 14.2025 42.5899 14.4125V35.5551C42.5899 35.6434 42.5694 35.7304 42.5299 35.8093C42.4905 35.8882 42.4332 35.9569 42.3626 36.0098L23.607 46.5811C23.5033 46.641 23.3857 46.6725 23.266 46.6725C23.1463 46.6725 23.0287 46.641 22.925 46.5811L18.1509 43.8531C18.0883 43.7971 18.0074 43.7662 17.9235 43.7662C17.8396 43.7662 17.7587 43.7971 17.6962 43.8531L14.8544 45.1034C14.5134 45.2171 14.0587 45.3308 14.9681 45.8991L21.3336 49.4229C21.9078 49.7994 22.5794 50 23.266 50C23.9526 50 24.6243 49.7994 25.1984 49.4229L44.0676 38.8516C44.6478 38.5167 45.131 38.0368 45.4697 37.4589C45.8085 36.881 45.9912 36.225 46 35.5551V14.4125C45.9912 13.7427 45.8085 13.0867 45.4697 12.5088C45.131 11.9309 44.6478 11.4509 44.0676 11.1161Z" fill="#DCD7BA"/>
<path d="M29.0632 32.145C24.0617 32.145 23.0387 31.0083 22.584 28.6213C22.584 28.5007 22.5361 28.385 22.4508 28.2998C22.3655 28.2145 22.2499 28.1666 22.1293 28.1666H19.6285C19.508 28.1666 19.3923 28.2145 19.307 28.2998C19.2218 28.385 19.1739 28.5007 19.1739 28.6213C19.1739 31.6904 20.8789 35.4415 29.0632 35.4415C34.974 35.4415 38.3841 33.1681 38.3841 29.1896C38.3841 25.2112 35.656 24.0745 29.8589 23.3924C24.0617 22.7104 23.4933 22.2557 23.4933 20.8917C23.4933 19.5277 23.948 18.391 28.2675 18.391C32.5869 18.391 33.61 19.1866 34.1783 21.6874C34.2049 21.8177 34.2763 21.9346 34.3802 22.0176C34.484 22.1007 34.6137 22.1448 34.7467 22.1421H37.1338L37.5884 21.9147C37.6296 21.8686 37.6609 21.8146 37.6804 21.7559C37.6999 21.6973 37.7073 21.6353 37.7021 21.5737C37.3611 17.1406 34.292 15.0945 28.2675 15.0945C22.243 15.0945 19.7422 17.3679 19.7422 21.0054C19.7422 24.6428 22.925 26.1205 28.0401 26.6889C33.1553 27.2572 34.7467 28.0529 34.7467 29.3033C34.7467 30.5537 33.0416 32.145 29.0632 32.145Z" fill="#DCD7BA"/>
</svg>
