<svg width="41" height="40" viewBox="0 0 41 40" fill="none" xmlns="http://www.w3.org/2000/svg">
<path d="M34.6112 9.97991C36.1282 9.97991 37.5831 10.5813 38.6558 11.6519C39.7285 12.7225 40.3311 14.1744 40.3311 15.6884V23.2332C40.3311 23.9829 40.1832 24.7252 39.8957 25.4178C39.6083 26.1104 39.1869 26.7397 38.6558 27.2698C38.1246 27.7998 37.4941 28.2203 36.8001 28.5072C36.1061 28.7941 35.3623 28.9418 34.6112 28.9418H20.3312C20.3312 29.7202 20.9712 30.9377 21.7512 30.9377H30.3312V34.291C30.3312 35.805 29.7285 37.257 28.6558 38.3275C27.5831 39.3981 26.1282 39.9995 24.6112 39.9995H16.0512C15.2933 39.9996 14.5429 39.8493 13.8437 39.5575C13.1444 39.2656 12.5103 38.838 11.978 38.2994C11.4458 37.7608 11.0262 37.1221 10.7435 36.4202C10.4608 35.7184 10.3207 34.9675 10.3313 34.2111V26.7262C10.3206 25.9708 10.4609 25.2209 10.7438 24.5201C11.0268 23.8194 11.4467 23.1819 11.9792 22.645C12.5117 22.108 13.146 21.6822 13.8451 21.3926C14.5443 21.1029 15.2942 20.9551 16.0512 20.9578H26.5512C27.3014 20.9684 28.0463 20.831 28.7432 20.5536C29.4401 20.2762 30.0753 19.8642 30.6123 19.3413C31.1493 18.8183 31.5775 18.1947 31.8725 17.5062C32.1675 16.8177 32.3233 16.0779 32.3312 15.3291V9.97991H34.6912M26.0512 33.5126C25.2512 33.5126 24.6112 34.1113 24.6112 35.289C24.6112 36.4666 25.2512 36.7061 26.0512 36.7061C26.2377 36.7061 26.4223 36.6695 26.5946 36.5982C26.7669 36.527 26.9234 36.4226 27.0553 36.291C27.1871 36.1595 27.2917 36.0032 27.3631 35.8313C27.4345 35.6594 27.4712 35.4751 27.4712 35.289C27.4712 34.1113 26.8312 33.5126 26.0512 33.5126ZM6.05127 29.9397C4.53424 29.9397 3.07934 29.3383 2.00664 28.2678C0.933937 27.1972 0.331299 25.7452 0.331299 24.2312V16.6864C0.331299 15.1724 0.933937 13.7204 2.00664 12.6499C3.07934 11.5793 4.53424 10.9779 6.05127 10.9779H20.3312C20.3312 10.1995 19.6912 8.98192 18.9112 8.98192H10.3313V5.70851C10.3313 4.19452 10.9339 2.74254 12.0066 1.67198C13.0793 0.601431 14.5342 0 16.0512 0H24.6112C25.3624 0 26.1062 0.147655 26.8001 0.434534C27.4941 0.721414 28.1247 1.1419 28.6558 1.67198C29.187 2.20207 29.6083 2.83137 29.8958 3.52396C30.1832 4.21655 30.3312 4.95886 30.3312 5.70851V13.1934C30.3418 13.9489 30.2016 14.6988 29.9186 15.3995C29.6357 16.1003 29.2157 16.7377 28.6832 17.2747C28.1507 17.8117 27.5164 18.2374 26.8173 18.5271C26.1181 18.8168 25.3682 18.9646 24.6112 18.9618H14.1112C13.361 18.9513 12.6161 19.0887 11.9192 19.3661C11.2223 19.6435 10.5871 20.0555 10.0501 20.5784C9.51315 21.1013 9.08489 21.7249 8.78992 22.4134C8.49495 23.1019 8.33909 23.8418 8.33126 24.5905V29.9397H6.05127ZM14.6112 6.4071C15.4112 6.4071 16.0512 5.80831 16.0512 4.63068C16.0512 3.45305 15.4112 3.21353 14.6112 3.21353C13.8112 3.21353 13.1912 3.45305 13.1912 4.63068C13.1912 5.80831 13.8312 6.4071 14.6112 6.4071Z" fill="#181818"/>
</svg>
