<svg width="65" height="50" viewBox="0 0 65 50" fill="none" xmlns="http://www.w3.org/2000/svg">
<path fill-rule="evenodd" clip-rule="evenodd" d="M32.4197 43.4247C14.5148 43.4247 0 33.7038 0 21.7124C0 9.72095 14.5148 0 32.4197 0C50.3246 0 64.8393 9.72095 64.8393 21.7124C64.8393 33.7038 50.3246 43.4247 32.4197 43.4247ZM37.3821 8.4888C23.7728 8.4888 12.7403 15.1345 12.7403 23.3323C12.7403 31.5301 23.7728 38.1758 37.3821 38.1758C50.9913 38.1758 61.0346 33.6323 61.0346 23.3323C61.0346 13.0355 50.9913 8.4888 37.3821 8.4888Z" fill="#F0F0F0"/>
<path fill-rule="evenodd" clip-rule="evenodd" d="M49.3735 33.6293C49.3735 33.6293 51.3356 34.2214 52.4756 34.7983C52.8712 34.9984 53.5555 35.3978 54.0492 35.9222C54.5328 36.4359 54.7685 36.9563 54.7685 36.9563L62.5015 49.9944L50.0029 50L44.1582 39.0244C44.1582 39.0244 42.9614 36.9681 42.225 36.3718C41.6107 35.8745 41.3487 35.6974 40.7413 35.6974C40.3185 35.6974 37.7717 35.6974 37.7717 35.6974L37.774 49.9921L26.7141 49.9968V13.4821H48.9239C48.9239 13.4821 59.0396 13.6646 59.0396 23.2888C59.0396 32.913 49.3735 33.6293 49.3735 33.6293ZM44.5628 21.4026L37.8673 21.3983L37.8639 27.6072L44.5628 27.605C44.5628 27.605 47.665 27.5954 47.665 24.4466C47.665 21.2346 44.5628 21.4026 44.5628 21.4026Z" fill="#F0F0F0"/>
</svg>
