<svg width="806" height="150" viewBox="0 0 806 150" fill="none" xmlns="http://www.w3.org/2000/svg">
<path d="M74.0275 26.8926C74.0275 26.8926 84.3744 29.4245 96.2193 31.5048C97.0126 27.707 97.8692 23.6687 98.7511 19.7654C100.11 13.0677 101.903 6.46528 104.119 0C88.5055 5.21564 54.1988 6.23682 54.1988 6.23682C35.9229 7.24535 16.6175 16.1195 12.3344 35.2857C8.89106 50.7681 0 97.8776 0 97.8776H0.0464175C1.0676 95.7888 20.6305 56.1694 27.6395 43.0417C36.577 26.3483 56.7981 23.1033 74.0275 26.8926Z" fill="#F79F00"/>
<path d="M96.2108 31.5051C94.5229 39.7126 93.1008 46.9157 92.4426 49.7345C85.577 78.6231 69.6263 94 44.9954 95.3798L24.9304 96.4939L0.0337582 97.8737L0 97.9623L42.4256 107.284C65.6343 112.373 84.4419 102.22 98.2954 77.18C101.553 71.2174 115.618 42.3415 121.994 34.0159C113.338 34.0304 104.701 33.1894 96.2108 31.5051Z" fill="#00879C"/>
<path d="M44.9964 95.3796C69.623 93.9997 85.5779 78.6228 92.452 49.7385C93.1102 46.9155 94.5112 39.7123 96.2202 31.5091C84.3753 29.4498 74.0284 26.8969 74.0284 26.8969C56.7991 23.0991 36.5779 26.3525 27.6447 43.0459C20.6314 56.1694 1.07277 95.7973 0.0473633 97.8735L24.944 96.4936L44.9964 95.3796Z" fill="#116967"/>
<path d="M157.406 3.81488H180.792L228.581 108.955H204.528L197.072 92.3288H141.308L133.851 108.955H109.617L157.406 3.81488ZM189.603 74.7366L176.893 44.8775C173.517 36.9696 169.268 26.4751 169.099 26.1544C168.93 26.4751 164.694 36.9696 161.305 44.8775L148.595 74.7366H189.603Z" fill="#116967"/>
<path d="M241.126 3.81488H288.24C320.61 3.81488 337.557 21.8924 337.557 44.3247C337.529 51.2599 335.562 58.049 331.879 63.9251C328.195 69.8011 322.941 74.5297 316.711 77.5765L339.591 108.955H312.306L295.359 83.8724C292.277 84.3808 289.161 84.6502 286.038 84.6784H264.854V108.955H241.131L241.126 3.81488ZM288.915 65.3138C302.811 65.3138 312.47 55.7898 312.47 44.3289C312.47 32.3827 302.811 23.0233 289.084 23.0233H264.85V65.3138H288.915Z" fill="#116967"/>
<path d="M341.793 3.81079H366.028L390.08 65.5334C392.452 71.5044 396.52 83.1256 396.688 83.9316C397.03 83.1256 400.908 71.5044 403.297 65.5334L427.7 3.81079H451.752L409.074 109.115H384.502L341.793 3.81079Z" fill="#116967"/>
<path d="M487.708 3.81488H511.086L558.875 108.955H534.822L527.366 92.3288H471.61L464.154 108.955H439.919L487.708 3.81488ZM519.905 74.7366L507.195 44.8775C503.819 36.9696 499.57 26.4751 499.401 26.1544C499.233 26.4751 494.996 36.9696 491.603 44.8775L478.893 74.7366H519.905Z" fill="#116967"/>
<path d="M571.429 3.81079H595.156V89.5861H658.715V108.955H571.437L571.429 3.81079Z" fill="#116967"/>
<path d="M716.158 96.527L724.8 79.0952C735.237 86.795 747.929 90.8247 760.896 90.5561C770.049 90.5561 781.231 86.522 781.231 78.2892C781.231 70.221 771.404 68.1195 761.744 65.8619C741.241 61.3426 720.053 54.726 720.053 32.9477C720.053 12.773 739.886 2.76368 760.896 2.76368C775.089 2.43616 789.062 6.31041 801.06 13.8997L792.418 31.3315C782.866 25.7272 771.97 22.826 760.896 22.9384C755.132 22.9384 744.287 25.0483 744.287 32.9477C744.287 39.7247 752.25 42.1468 763.099 44.569C782.59 48.928 805.976 55.8695 805.976 78.3018C805.976 100.899 782.928 110.743 760.896 110.743C734.628 110.743 722.256 101.219 716.167 96.5397" fill="#116967"/>
<path d="M110.238 126.466C320.804 117.183 529.016 122.247 739.351 134.037C760.18 135.303 783.886 136.712 804.656 138.231C776.662 137.168 745.609 136.366 717.459 135.758C579.941 132.91 440.882 133.534 303.427 138.657C285.679 139.244 250.71 141.008 232.733 141.784C214.82 142.81 190.958 144.227 172.99 145.274C157.512 146.282 126.323 148.89 110.655 150L110.233 126.475" fill="#116967"/>
<path d="M674.805 45.4134L698.529 32.2561V108.752H674.805V45.4134Z" fill="#116967"/>
<path d="M674.805 3.64594H698.529V18.8371L674.805 31.4458V3.64594Z" fill="#F79F00"/>
</svg>
