<svg width="372" height="150" viewBox="0 0 372 150" fill="none" xmlns="http://www.w3.org/2000/svg">
<path d="M117.581 39.8789C117.581 36.9633 117.581 24.4058 126.68 24.4058C134.267 24.4058 135.216 34.0477 135.216 38.8748C135.216 46.4093 133.699 55.047 126.207 55.047C118.05 55.047 117.581 43.8903 117.581 39.8789ZM99.7531 14.8657C99.8473 16.9755 99.944 17.578 100.13 23.1042V76.334H117.961V59.2618C119.591 61.5142 121.749 63.3327 124.245 64.5585C126.741 65.7842 129.499 66.3797 132.279 66.2929C143.091 66.2929 153.521 58.6618 153.521 39.0731C153.521 18.3788 141.003 13.5566 133.04 13.5566C129.914 13.4209 126.81 14.1326 124.055 15.6164C121.301 17.1003 118.999 19.3012 117.393 21.9861L117.202 14.8532H99.7556L99.7531 14.8657ZM58.7015 39.9806C58.7015 32.4461 60.2188 23.91 68.0904 23.91C75.2009 23.91 77.1943 31.2461 77.1943 39.9806C77.1943 47.0117 75.677 55.9544 67.8995 55.9544C66.4793 56.0356 65.0666 55.6981 63.8365 54.9837C62.6064 54.2692 61.6131 53.2094 60.9799 51.9355C59.3042 48.181 58.5242 44.0883 58.7015 39.9806ZM40.2136 39.8789C39.8612 46.9219 42.3157 53.8173 47.039 59.0535C51.6852 63.7641 58.5106 66.4913 69.0375 66.4913C78.8058 66.4913 84.6841 63.3773 88.6658 59.2568C93.4162 53.7076 95.8886 46.565 95.5854 39.2665C95.5854 21.3861 83.5437 13.1475 68.0855 13.1475C49.2158 13.1475 40.2111 24.4058 40.2111 39.8739M26.4562 15.069V0L9.29475 7.23696V15.0739H0V27.1305H9.00964V51.338C9.00964 61.0815 11.8533 66.107 26.0769 66.107C29.9535 66.1695 33.8275 65.8674 37.6476 65.2046V53.3512C36.1714 53.5796 34.6784 53.6808 33.1849 53.6537C26.3595 53.6537 26.3595 50.8397 26.2653 44.6093V27.1281H37.7418V15.0714L26.4562 15.069Z" fill="#008437"/>
<path d="M226.687 130.111H245.564V108.713C245.564 103.288 247.18 95.1514 258.786 95.1514C260.136 95.1833 261.484 95.2843 262.824 95.4538V79.2816C258.486 79.1849 249.297 78.88 244.959 90.1309L244.654 79.6857H226.183L226.679 90.4333V130.101L226.687 130.111ZM200.037 106.311C200.29 109.525 199.807 112.754 198.626 115.754C197.985 117.197 196.937 118.421 195.611 119.277C194.285 120.134 192.737 120.585 191.159 120.576C190.239 120.64 189.317 120.508 188.452 120.189C187.587 119.871 186.8 119.372 186.142 118.726C185.484 118.081 184.97 117.303 184.635 116.445C184.3 115.586 184.151 114.666 184.197 113.746C184.197 106.511 191.967 106.41 200.039 106.308M218.817 130.109C218.1 126.946 217.76 123.71 217.806 120.467V96.9637C217.999 94.5683 217.705 92.1587 216.942 89.88C216.179 87.6013 214.962 85.5006 213.365 83.7046C208.02 78.4783 198.326 77.8783 193.779 77.8783C184.591 77.8783 176.72 80.1865 172.782 84.2054C171.455 85.6116 170.422 87.2696 169.745 89.0814C169.069 90.8933 168.762 92.8223 168.843 94.7547H187.011C186.912 89.0276 190.234 87.1185 193.777 87.1185C199.531 87.1185 200.238 92.1391 200.134 97.5637C178.329 96.6612 165.511 101.684 165.511 115.444C165.511 124.387 170.965 131.115 183.376 131.115C193.777 131.115 197.711 126.293 200.032 122.877C199.97 125.303 200.174 127.729 200.639 130.111H218.812L218.817 130.109ZM126.983 130.109H145.86V108.71C145.86 103.286 147.472 95.1489 159.085 95.1489C160.435 95.181 161.783 95.2819 163.123 95.4513V79.2791C158.785 79.1824 149.594 78.8775 145.258 90.1284L144.953 79.6832H126.482L126.978 90.4308V130.099L126.983 130.109ZM99.2153 103.085C99.2153 106.7 98.9104 117.351 89.8264 117.351C81.4489 117.351 80.2366 108.614 80.2366 103.288C80.2366 94.8588 83.6654 89.0226 90.0272 89.0226C99.2153 89.0226 99.2153 100.474 99.2153 103.085ZM100.128 79.3783V87.0144C97.6038 82.9955 93.1659 78.4734 83.3704 78.4734C67.927 78.4734 60.6579 89.8234 60.6579 103.487C60.6579 121.87 72.4691 128.5 83.1695 128.5C86.3565 128.602 89.5191 127.912 92.3745 126.493C95.23 125.074 97.6893 122.97 99.5327 120.368V126.995C99.5327 132.42 98.9253 139.252 89.4371 139.252C83.9827 139.252 81.2556 136.642 81.1589 132.824H63.2834C63.1826 134.925 63.5466 137.023 64.3492 138.968C65.1518 140.912 66.3735 142.656 67.927 144.075C73.6814 149.197 83.2712 150 89.0231 150C99.4186 150 105.58 147.486 109.918 144.372C116.781 139.55 117.991 132.417 117.991 126.393V79.3833L100.128 79.3783ZM35.0248 106.303C35.2777 109.517 34.7953 112.747 33.6141 115.747C32.9718 117.19 31.923 118.414 30.5959 119.27C29.2689 120.127 27.721 120.578 26.1416 120.569C25.2219 120.633 24.2991 120.501 23.4341 120.182C22.5691 119.863 21.7815 119.365 21.1232 118.719C20.4649 118.074 19.9509 117.296 19.615 116.438C19.2792 115.579 19.1292 114.659 19.1749 113.738C19.1749 106.504 26.9473 106.405 35.0248 106.303ZM53.8027 130.101C53.0853 126.939 52.7458 123.702 52.7912 120.46V96.9563C52.9832 94.561 52.6888 92.1516 51.9257 89.873C51.1626 87.5944 49.9466 85.4937 48.3508 83.6972C43.0006 78.4709 33.3116 77.8709 28.7646 77.8709C19.5765 77.8709 11.7048 80.1791 7.76777 84.198C6.43977 85.6039 5.4073 87.2619 4.73147 89.0739C4.05564 90.8859 3.75019 92.8151 3.83318 94.7472H22.0012C21.902 89.0201 25.2242 87.1111 28.7622 87.1111C34.5165 87.1111 35.2231 92.1316 35.119 97.5562C13.3139 96.6538 0.496094 101.677 0.496094 115.437C0.496094 124.379 5.95047 131.108 18.3641 131.108C28.7597 131.108 32.6967 126.286 35.0198 122.869C34.9557 125.296 35.1594 127.722 35.6272 130.104H53.8002L53.8027 130.101Z" fill="#008437"/>
<path d="M336.138 104.461C336.138 123.428 329.854 129.135 317.673 129.135C311.917 129.329 306.247 127.705 301.466 124.494C301.762 127.904 301.86 131.329 301.759 134.75V146.267H287.319V80.172H299.103L300.184 87.1412C302.67 84.5389 305.658 82.468 308.968 81.0541C312.277 79.6401 315.839 78.9124 319.438 78.9151C331.425 78.9027 336.138 88.3015 336.138 104.461ZM321.208 104.461C321.208 92.9452 319.049 90.1387 313.644 90.1387C309.429 90.1387 306.179 91.7824 301.756 94.6856V116.558C305.319 117.693 309.02 118.344 312.757 118.491C318.952 118.491 321.208 116.364 321.208 104.461Z" fill="#E1000A"/>
<path d="M360.792 112.298C360.792 115.591 362.659 117.135 366.291 117.135H370.218L371.887 127.104C368.164 128.414 364.243 129.069 360.296 129.041C351.753 129.041 346.348 124.298 346.348 115.881V60.1396H360.787V112.298H360.792Z" fill="#E1000A"/>
<path d="M267.72 131.562C274.231 131.562 279.509 126.363 279.509 119.949C279.509 113.536 274.231 108.336 267.72 108.336C261.209 108.336 255.931 113.536 255.931 119.949C255.931 126.363 261.209 131.562 267.72 131.562Z" fill="#E1000A"/>
</svg>
