<svg width="31" height="30" viewBox="0 0 31 30" fill="none" xmlns="http://www.w3.org/2000/svg">
<path d="M30.8701 6.75505C30.6317 6.27577 30.2741 6.03614 29.7974 6.03614H24.6722C23.7187 2.92083 20.9773 0.524446 17.64 0.0451691C15.2562 -0.19447 12.8725 0.524446 11.0846 2.0821C9.41597 3.75957 8.34326 6.03614 8.34326 8.43252C8.34326 10.5893 9.17759 12.5064 10.4887 14.064C9.65434 14.3037 8.82002 14.3037 7.98569 14.1839C6.07866 13.8244 4.29082 12.9857 2.74136 11.7875L1.78784 11.0685C1.43027 10.8289 0.953516 10.7091 0.595947 10.9487C0.238379 11.1884 0 11.5478 0 12.0271V21.6126C0 21.7325 0 21.8523 0 21.8523C1.31108 26.8847 4.76758 30 9.53516 30H17.64C22.05 30 25.7449 26.7649 26.2217 22.5712C26.5792 19.3361 25.0298 16.3406 22.4076 14.5433C22.8844 14.064 23.2419 13.7046 23.5995 13.1055C25.8641 12.8658 27.8903 11.6676 29.3206 9.87035L30.7509 7.95325C30.9893 7.59379 31.1084 7.11451 30.8701 6.75505ZM14.3027 26.4054C8.70083 26.4054 7.27056 22.2117 7.27056 21.9721C7.15137 21.4928 7.27056 21.0136 7.62812 20.6541C8.34326 20.055 12.0381 16.7001 14.4219 16.7001C17.0441 16.7001 19.1895 18.8568 19.1895 21.4928C19.1895 24.1289 16.9249 26.4054 14.3027 26.4054ZM20.2622 9.63072C20.2622 10.3496 19.7854 10.8289 19.0703 10.8289C18.3552 10.8289 17.8784 10.3496 17.8784 9.63072V6.03614C17.8784 5.31722 18.3552 4.83794 19.0703 4.83794C19.7854 4.83794 20.2622 5.31722 20.2622 6.03614V9.63072Z" fill="#E2DC27"/>
</svg>
